<svg width="194" height="39" viewBox="0 0 194 39" fill="none" xmlns="http://www.w3.org/2000/svg">
<path d="M63.6591 26.25H59.6641L64.1651 12.6137H69.2255L73.7266 26.25H69.7315L66.7486 16.369H66.642L63.6591 26.25ZM62.9134 20.8701H70.424V23.64H62.9134V20.8701Z" fill="#281E11"/>
<path d="M76.9149 26.25V12.6137H82.8276C83.8663 12.6137 84.7385 12.7535 85.4443 13.0332C86.1545 13.3128 86.6894 13.7079 87.049 14.2184C87.413 14.7288 87.595 15.3303 87.595 16.0228C87.595 16.5244 87.484 16.9816 87.2621 17.3944C87.0445 17.8072 86.7383 18.1535 86.3432 18.4331C85.9481 18.7083 85.4865 18.8992 84.9583 19.0057V19.1389C85.5442 19.1611 86.0769 19.3098 86.5563 19.585C87.0357 19.8558 87.4174 20.2309 87.7015 20.7103C87.9856 21.1852 88.1276 21.7445 88.1276 22.3882C88.1276 23.1339 87.9323 23.7975 87.5417 24.379C87.1555 24.9605 86.6051 25.4177 85.8904 25.7507C85.1758 26.0836 84.3235 26.25 83.3336 26.25H76.9149ZM80.617 23.2937H82.3482C82.9696 23.2937 83.4357 23.1783 83.7464 22.9475C84.0572 22.7122 84.2125 22.366 84.2125 21.9088C84.2125 21.5892 84.1393 21.3184 83.9928 21.0965C83.8463 20.8745 83.6377 20.7058 83.3669 20.5904C83.1006 20.475 82.7787 20.4173 82.4014 20.4173H80.617V23.2937ZM80.617 18.1268H82.1351C82.4591 18.1268 82.7455 18.0758 82.994 17.9737C83.2426 17.8716 83.4357 17.7251 83.5733 17.5342C83.7154 17.3389 83.7864 17.1014 83.7864 16.8218C83.7864 16.4001 83.6355 16.0783 83.3336 15.8563C83.0318 15.6299 82.65 15.5167 82.1884 15.5167H80.617V18.1268Z" fill="#281E11"/>
<path d="M104.525 19.4319C104.525 20.95 104.229 22.2306 103.639 23.2737C103.049 24.3125 102.252 25.1004 101.249 25.6375C100.245 26.1701 99.1268 26.4365 97.8928 26.4365C96.6499 26.4365 95.5269 26.1679 94.5237 25.6308C93.5249 25.0893 92.7304 24.2991 92.14 23.2604C91.554 22.2173 91.2611 20.9411 91.2611 19.4319C91.2611 17.9138 91.554 16.6353 92.14 15.5966C92.7304 14.5535 93.5249 13.7656 94.5237 13.2329C95.5269 12.6958 96.6499 12.4272 97.8928 12.4272C99.1268 12.4272 100.245 12.6958 101.249 13.2329C102.252 13.7656 103.049 14.5535 103.639 15.5966C104.229 16.6353 104.525 17.9138 104.525 19.4319ZM100.716 19.4319C100.716 18.6151 100.607 17.9271 100.39 17.3678C100.177 16.804 99.8593 16.3779 99.4376 16.0894C99.0203 15.7964 98.5054 15.6499 97.8928 15.6499C97.2803 15.6499 96.7631 15.7964 96.3414 16.0894C95.9242 16.3779 95.6068 16.804 95.3893 17.3678C95.1762 17.9271 95.0697 18.6151 95.0697 19.4319C95.0697 20.2486 95.1762 20.9389 95.3893 21.5026C95.6068 22.0619 95.9242 22.4881 96.3414 22.781C96.7631 23.0696 97.2803 23.2138 97.8928 23.2138C98.5054 23.2138 99.0203 23.0696 99.4376 22.781C99.8593 22.4881 100.177 22.0619 100.39 21.5026C100.607 20.9389 100.716 20.2486 100.716 19.4319Z" fill="#281E11"/>
<path d="M116.182 12.6137H119.884V21.3495C119.884 22.3882 119.636 23.2871 119.139 24.0461C118.646 24.8007 117.958 25.3845 117.075 25.7973C116.191 26.2057 115.166 26.4098 113.998 26.4098C112.822 26.4098 111.792 26.2057 110.909 25.7973C110.026 25.3845 109.338 24.8007 108.845 24.0461C108.357 23.2871 108.112 22.3882 108.112 21.3495V12.6137H111.814V21.0299C111.814 21.4516 111.908 21.8289 112.094 22.1618C112.281 22.4903 112.538 22.7477 112.867 22.9342C113.199 23.1206 113.577 23.2138 113.998 23.2138C114.425 23.2138 114.802 23.1206 115.13 22.9342C115.459 22.7477 115.716 22.4903 115.903 22.1618C116.089 21.8289 116.182 21.4516 116.182 21.0299V12.6137Z" fill="#281E11"/>
<path d="M123.146 15.5966V12.6137H134.998V15.5966H130.896V26.25H127.248V15.5966H123.146Z" fill="#281E11"/>
<rect x="1.6875" y="2.4375" width="190.625" height="34.375" rx="17.1875" stroke="#281E11" stroke-width="3.125"/>
</svg>
