<svg width="44" height="45" viewBox="0 0 44 45" fill="none" xmlns="http://www.w3.org/2000/svg">
<path d="M34.8044 0.625H9.28353C4.25046 0.625 0.168945 4.70651 0.168945 9.73958V35.2604C0.168945 40.2935 4.25046 44.375 9.28353 44.375H34.8044C39.8393 44.375 43.9189 40.2935 43.9189 35.2604V9.73958C43.9189 4.70651 39.8393 0.625 34.8044 0.625ZM29.3356 13.3854H25.8283C24.7072 13.3854 23.8669 13.8448 23.8669 15.006V17.0312H29.3356L28.9018 22.5H23.8669V37.0833H18.3981V22.5H14.7523V17.0312H18.3981V13.5258C18.3981 9.83984 20.3377 7.91667 24.7072 7.91667H29.3356V13.3854Z" fill="white"/>
</svg>
