<svg width="194" height="39" viewBox="0 0 194 39" fill="none" xmlns="http://www.w3.org/2000/svg">
<rect x="1.6875" y="2.4375" width="190.625" height="34.375" rx="17.1875" stroke="white" stroke-width="3.125"/>
<path d="M63.659 26.25H59.6639L64.165 12.6136H69.2254L73.7264 26.25H69.7314L66.7484 16.369H66.6419L63.659 26.25ZM62.9132 20.87H70.4239V23.6399H62.9132V20.87ZM76.9148 26.25V12.6136H82.8274C83.8661 12.6136 84.7384 12.7535 85.4442 13.0331C86.1544 13.3128 86.6893 13.7078 87.0489 14.2183C87.4128 14.7288 87.5948 15.3303 87.5948 16.0227C87.5948 16.5243 87.4839 16.9815 87.2619 17.3944C87.0444 17.8072 86.7381 18.1534 86.3431 18.4331C85.948 18.7083 85.4864 18.8991 84.9581 19.0057V19.1388C85.5441 19.161 86.0767 19.3097 86.5561 19.585C87.0355 19.8557 87.4173 20.2308 87.7014 20.7102C87.9855 21.1852 88.1275 21.7445 88.1275 22.3881C88.1275 23.1339 87.9322 23.7975 87.5416 24.379C87.1554 24.9605 86.605 25.4177 85.8903 25.7506C85.1756 26.0835 84.3234 26.25 83.3335 26.25H76.9148ZM80.6169 23.2937H82.348C82.9695 23.2937 83.4356 23.1783 83.7463 22.9474C84.057 22.7122 84.2124 22.3659 84.2124 21.9087C84.2124 21.5891 84.1391 21.3184 83.9927 21.0964C83.8462 20.8745 83.6375 20.7058 83.3668 20.5904C83.1004 20.475 82.7786 20.4173 82.4013 20.4173H80.6169V23.2937ZM80.6169 18.1268H82.135C82.459 18.1268 82.7453 18.0757 82.9939 17.9736C83.2425 17.8715 83.4356 17.7251 83.5732 17.5342C83.7152 17.3389 83.7862 17.1014 83.7862 16.8217C83.7862 16.4 83.6353 16.0782 83.3335 15.8563C83.0316 15.6299 82.6499 15.5167 82.1882 15.5167H80.6169V18.1268ZM104.524 19.4318C104.524 20.9499 104.229 22.2306 103.639 23.2737C103.048 24.3124 102.252 25.1003 101.249 25.6374C100.245 26.1701 99.1267 26.4364 97.8927 26.4364C96.6498 26.4364 95.5267 26.1679 94.5235 25.6308C93.5248 25.0892 92.7302 24.2991 92.1398 23.2604C91.5539 22.2172 91.2609 20.9411 91.2609 19.4318C91.2609 17.9137 91.5539 16.6353 92.1398 15.5966C92.7302 14.5534 93.5248 13.7655 94.5235 13.2329C95.5267 12.6958 96.6498 12.4272 97.8927 12.4272C99.1267 12.4272 100.245 12.6958 101.249 13.2329C102.252 13.7655 103.048 14.5534 103.639 15.5966C104.229 16.6353 104.524 17.9137 104.524 19.4318ZM100.716 19.4318C100.716 18.6151 100.607 17.927 100.39 17.3677C100.177 16.804 99.8591 16.3778 99.4374 16.0893C99.0202 15.7963 98.5053 15.6499 97.8927 15.6499C97.2801 15.6499 96.763 15.7963 96.3413 16.0893C95.924 16.3778 95.6066 16.804 95.3891 17.3677C95.1761 17.927 95.0695 18.6151 95.0695 19.4318C95.0695 20.2486 95.1761 20.9388 95.3891 21.5026C95.6066 22.0619 95.924 22.488 96.3413 22.781C96.763 23.0695 97.2801 23.2138 97.8927 23.2138C98.5053 23.2138 99.0202 23.0695 99.4374 22.781C99.8591 22.488 100.177 22.0619 100.39 21.5026C100.607 20.9388 100.716 20.2486 100.716 19.4318ZM116.182 12.6136H119.884V21.3494C119.884 22.3881 119.636 23.287 119.139 24.0461C118.646 24.8007 117.958 25.3844 117.074 25.7972C116.191 26.2056 115.166 26.4098 113.998 26.4098C112.822 26.4098 111.792 26.2056 110.909 25.7972C110.025 25.3844 109.337 24.8007 108.845 24.0461C108.356 23.287 108.112 22.3881 108.112 21.3494V12.6136H111.814V21.0298C111.814 21.4515 111.908 21.8288 112.094 22.1618C112.28 22.4902 112.538 22.7477 112.866 22.9341C113.199 23.1206 113.577 23.2138 113.998 23.2138C114.424 23.2138 114.802 23.1206 115.13 22.9341C115.459 22.7477 115.716 22.4902 115.903 22.1618C116.089 21.8288 116.182 21.4515 116.182 21.0298V12.6136ZM123.146 15.5966V12.6136H134.998V15.5966H130.896V26.25H127.247V15.5966H123.146Z" fill="white"/>
</svg>
