<svg width="232" height="39" viewBox="0 0 232 39" fill="none" xmlns="http://www.w3.org/2000/svg">
<path d="M30.5789 16.875C30.5434 16.4312 30.377 16.0849 30.0795 15.8363C29.7866 15.5878 29.3405 15.4635 28.7412 15.4635C28.3595 15.4635 28.0465 15.5101 27.8024 15.6033C27.5627 15.6921 27.3851 15.8141 27.2697 15.9695C27.1543 16.1249 27.0944 16.3024 27.0899 16.5022C27.0811 16.6664 27.1099 16.8151 27.1765 16.9483C27.2475 17.077 27.3585 17.1946 27.5094 17.3012C27.6603 17.4033 27.8534 17.4965 28.0887 17.5808C28.324 17.6652 28.6036 17.7406 28.9276 17.8072L30.0463 18.0469C30.8009 18.2067 31.4467 18.4176 31.9838 18.6795C32.521 18.9414 32.9604 19.2499 33.3022 19.605C33.644 19.9557 33.8948 20.3507 34.0546 20.7902C34.2188 21.2296 34.3032 21.709 34.3076 22.2284C34.3032 23.125 34.079 23.8841 33.6351 24.5055C33.1912 25.127 32.5565 25.5997 31.7308 25.9238C30.9096 26.2478 29.922 26.4098 28.7678 26.4098C27.5827 26.4098 26.5484 26.2345 25.665 25.8838C24.7861 25.5332 24.1025 24.9938 23.6143 24.2658C23.1304 23.5334 22.8863 22.5968 22.8818 21.456H26.3975C26.4197 21.8733 26.524 22.2239 26.7104 22.508C26.8968 22.7921 27.1587 23.0074 27.4961 23.1539C27.8379 23.3004 28.2441 23.3736 28.7146 23.3736C29.1096 23.3736 29.4403 23.3248 29.7067 23.2271C29.973 23.1295 30.175 22.9941 30.3126 22.821C30.4502 22.6479 30.5212 22.4503 30.5257 22.2284C30.5212 22.0198 30.4524 21.8378 30.3192 21.6824C30.1905 21.5226 29.9775 21.3805 29.68 21.2563C29.3826 21.1275 28.9809 21.0077 28.4749 20.8967L27.1166 20.6037C25.9092 20.3418 24.957 19.9046 24.2601 19.292C23.5676 18.675 23.2236 17.8339 23.2281 16.7685C23.2236 15.9029 23.4545 15.1461 23.9205 14.498C24.3911 13.8455 25.0414 13.3372 25.8714 12.9732C26.706 12.6092 27.6626 12.4272 28.7412 12.4272C29.8421 12.4272 30.7942 12.6115 31.5977 12.9799C32.4011 13.3483 33.0203 13.8677 33.4553 14.538C33.8948 15.2038 34.1167 15.9828 34.1212 16.875H30.5789Z" fill="#281E11"/>
<path d="M37.5909 26.25V12.6137H43.4769C44.4889 12.6137 45.3745 12.8134 46.1336 13.2129C46.8926 13.6124 47.483 14.174 47.9047 14.8975C48.3264 15.621 48.5372 16.4667 48.5372 17.4343C48.5372 18.4109 48.3197 19.2565 47.8847 19.9712C47.4541 20.6859 46.8482 21.2363 46.067 21.6225C45.2902 22.0087 44.3824 22.2017 43.3437 22.2017H39.8281V19.3253H42.598C43.033 19.3253 43.4036 19.2499 43.7099 19.0989C44.0206 18.9436 44.2581 18.7239 44.4224 18.4398C44.591 18.1557 44.6754 17.8205 44.6754 17.4343C44.6754 17.0437 44.591 16.7108 44.4224 16.4356C44.2581 16.1559 44.0206 15.9429 43.7099 15.7964C43.4036 15.6455 43.033 15.57 42.598 15.57H41.2929V26.25H37.5909Z" fill="#281E11"/>
<path d="M51.7706 26.25V12.6137H61.5983V15.5966H55.4726V17.9404H61.0923V20.9233H55.4726V23.2671H61.5717V26.25H51.7706Z" fill="#281E11"/>
<path d="M65.3094 26.25V12.6137H75.1371V15.5966H69.0114V17.9404H74.6311V20.9233H69.0114V23.2671H75.1105V26.25H65.3094Z" fill="#281E11"/>
<path d="M91.579 17.7273H87.8237C87.7971 17.4166 87.726 17.1347 87.6106 16.8817C87.4996 16.6287 87.3443 16.4112 87.1445 16.2292C86.9492 16.0427 86.7117 15.9007 86.4321 15.803C86.1524 15.7009 85.835 15.6499 85.4799 15.6499C84.8585 15.6499 84.3325 15.8008 83.9019 16.1027C83.4758 16.4045 83.1517 16.8373 82.9298 17.4011C82.7123 17.9648 82.6035 18.6417 82.6035 19.4319C82.6035 20.2664 82.7145 20.9655 82.9364 21.5293C83.1628 22.0886 83.4891 22.5103 83.9152 22.7943C84.3414 23.074 84.854 23.2138 85.4533 23.2138C85.7951 23.2138 86.1014 23.1717 86.3722 23.0873C86.6429 22.9985 86.8782 22.872 87.0779 22.7078C87.2777 22.5435 87.4397 22.346 87.564 22.1152C87.6927 21.8799 87.7793 21.6158 87.8237 21.3228L91.579 21.3495C91.5346 21.9265 91.3726 22.5147 91.0929 23.1139C90.8133 23.7088 90.416 24.2592 89.9011 24.7652C89.3906 25.2668 88.7581 25.6708 88.0035 25.9771C87.2488 26.2833 86.3722 26.4365 85.3734 26.4365C84.1216 26.4365 82.9986 26.1679 82.0043 25.6308C81.0144 25.0937 80.2309 24.3036 79.6539 23.2604C79.0812 22.2173 78.7949 20.9411 78.7949 19.4319C78.7949 17.9138 79.0879 16.6353 79.6738 15.5966C80.2598 14.5535 81.0499 13.7656 82.0442 13.2329C83.0385 12.6958 84.1483 12.4272 85.3734 12.4272C86.2346 12.4272 87.0269 12.5449 87.7504 12.7801C88.474 13.0154 89.1087 13.3594 89.6547 13.8122C90.2007 14.2605 90.6402 14.8132 90.9731 15.4701C91.306 16.1271 91.508 16.8795 91.579 17.7273Z" fill="#281E11"/>
<path d="M95.1336 26.25V12.6137H98.8356V17.9404H103.736V12.6137H107.438V26.25H103.736V20.9233H98.8356V26.25H95.1336Z" fill="#281E11"/>
<path d="M116.309 15.5966V12.6137H128.16V15.5966H124.059V26.25H120.41V15.5966H116.309Z" fill="#281E11"/>
<path d="M143.998 19.4319C143.998 20.95 143.703 22.2306 143.113 23.2737C142.522 24.3125 141.725 25.1004 140.722 25.6375C139.719 26.1701 138.6 26.4365 137.366 26.4365C136.123 26.4365 135 26.1679 133.997 25.6308C132.998 25.0893 132.204 24.2991 131.614 23.2604C131.028 22.2173 130.735 20.9411 130.735 19.4319C130.735 17.9138 131.028 16.6353 131.614 15.5966C132.204 14.5535 132.998 13.7656 133.997 13.2329C135 12.6958 136.123 12.4272 137.366 12.4272C138.6 12.4272 139.719 12.6958 140.722 13.2329C141.725 13.7656 142.522 14.5535 143.113 15.5966C143.703 16.6353 143.998 17.9138 143.998 19.4319ZM140.19 19.4319C140.19 18.6151 140.081 17.9271 139.863 17.3678C139.65 16.804 139.333 16.3779 138.911 16.0894C138.494 15.7964 137.979 15.6499 137.366 15.6499C136.754 15.6499 136.237 15.7964 135.815 16.0894C135.398 16.3779 135.08 16.804 134.863 17.3678C134.65 17.9271 134.543 18.6151 134.543 19.4319C134.543 20.2486 134.65 20.9389 134.863 21.5026C135.08 22.0619 135.398 22.4881 135.815 22.781C136.237 23.0696 136.754 23.2138 137.366 23.2138C137.979 23.2138 138.494 23.0696 138.911 22.781C139.333 22.4881 139.65 22.0619 139.863 21.5026C140.081 20.9389 140.19 20.2486 140.19 19.4319Z" fill="#281E11"/>
<path d="M152.823 15.5966V12.6137H164.675V15.5966H160.574V26.25H156.925V15.5966H152.823Z" fill="#281E11"/>
<path d="M167.944 26.25V12.6137H177.771V15.5966H171.646V17.9404H177.265V20.9233H171.646V23.2671H177.745V26.25H167.944Z" fill="#281E11"/>
<path d="M185.451 12.6137L187.688 16.5821H187.795L190.058 12.6137H194.187L190.112 19.4319L194.346 26.25H190.112L187.795 22.2017H187.688L185.371 26.25H181.163L185.344 19.4319L181.296 12.6137H185.451Z" fill="#281E11"/>
<path d="M197.285 15.5966V12.6137H209.137V15.5966H205.035V26.25H201.387V15.5966H197.285Z" fill="#281E11"/>
<rect x="1.6875" y="2.4375" width="228.125" height="34.375" rx="17.1875" stroke="#281E11" stroke-width="3.125"/>
</svg>
