<svg width="44" height="45" viewBox="0 0 44 45" fill="none" xmlns="http://www.w3.org/2000/svg">
<path fill-rule="evenodd" clip-rule="evenodd" d="M34.7419 44.375H9.22103C4.18796 44.375 0.106445 40.2935 0.106445 35.2604V9.73958C0.106445 4.70651 4.18796 0.625 9.22103 0.625H34.7419C39.7768 0.625 43.8564 4.70651 43.8564 9.73958V35.2604C43.8564 40.2935 39.7768 44.375 34.7419 44.375ZM29.7398 34.9906C30.1317 35.2695 30.6348 35.3388 31.0851 35.1674C31.5335 34.9979 31.8653 34.6133 31.9656 34.1466C33.021 29.1846 35.584 16.6211 36.5447 12.1076C36.6158 11.7667 36.4955 11.413 36.2294 11.1852C35.9614 10.9591 35.5895 10.8935 35.2596 11.0156C30.1645 12.9005 14.471 18.7885 8.05618 21.1638C7.64967 21.3133 7.38535 21.7052 7.39811 22.1354C7.41269 22.5638 7.70254 22.9375 8.11816 23.0633C10.9947 23.9219 14.7718 25.1195 14.7718 25.1195C14.7718 25.1195 16.5346 30.4497 17.4551 33.1586C17.57 33.4995 17.838 33.7674 18.188 33.8586C18.5398 33.9497 18.9117 33.8549 19.1742 33.607C20.6525 32.2125 22.9367 30.056 22.9367 30.056C22.9367 30.056 27.277 33.2388 29.7398 34.9906ZM16.3596 24.4469L18.3994 31.1771L18.8533 26.9151C18.8533 26.9151 26.7356 19.8057 31.2309 15.7516C31.3622 15.6331 31.3804 15.4344 31.271 15.294C31.1617 15.1536 30.963 15.1208 30.8135 15.2156C25.6054 18.5424 16.3596 24.4469 16.3596 24.4469Z" fill="black"/>
</svg>
