<svg width="45" height="45" viewBox="0 0 45 45" fill="none" xmlns="http://www.w3.org/2000/svg">
<path id="button" fill-rule="evenodd" clip-rule="evenodd" d="M35.0544 44.375H9.53353C4.50046 44.375 0.418945 40.2935 0.418945 35.2604V9.73958C0.418945 4.70651 4.50046 0.625 9.53353 0.625H35.0544C40.0893 0.625 44.1689 4.70651 44.1689 9.73958V35.2604C44.1689 40.2935 40.0893 44.375 35.0544 44.375ZM30.0523 34.9906C30.4442 35.2695 30.9473 35.3388 31.3976 35.1674C31.846 34.9979 32.1778 34.6133 32.2781 34.1466C33.3335 29.1846 35.8965 16.6211 36.8572 12.1076C36.9283 11.7667 36.808 11.413 36.5419 11.1852C36.2739 10.9591 35.902 10.8935 35.5721 11.0156C30.477 12.9005 14.7835 18.7885 8.36868 21.1638C7.96217 21.3133 7.69785 21.7052 7.71061 22.1354C7.72519 22.5638 8.01504 22.9375 8.43066 23.0633C11.3072 23.9219 15.0843 25.1195 15.0843 25.1195C15.0843 25.1195 16.8471 30.4497 17.7676 33.1586C17.8825 33.4995 18.1505 33.7674 18.5005 33.8586C18.8523 33.9497 19.2242 33.8549 19.4867 33.607C20.965 32.2125 23.2492 30.056 23.2492 30.056C23.2492 30.056 27.5895 33.2388 30.0523 34.9906ZM16.6721 24.4469L18.7119 31.1771L19.1658 26.9151C19.1658 26.9151 27.0481 19.8057 31.5434 15.7516C31.6747 15.6331 31.6929 15.4344 31.5835 15.294C31.4742 15.1536 31.2755 15.1208 31.126 15.2156C25.9179 18.5424 16.6721 24.4469 16.6721 24.4469Z" fill="white"/>
</svg>
