<svg width="45" height="45" viewBox="0 0 45 45" fill="none" xmlns="http://www.w3.org/2000/svg">
<path d="M35.4919 0.625H9.97103C4.93796 0.625 0.856445 4.70651 0.856445 9.73958V35.2604C0.856445 40.2935 4.93796 44.375 9.97103 44.375H35.4919C40.5268 44.375 44.6064 40.2935 44.6064 35.2604V9.73958C44.6064 4.70651 40.5268 0.625 35.4919 0.625ZM30.0231 13.3854H26.5158C25.3947 13.3854 24.5544 13.8448 24.5544 15.006V17.0312H30.0231L29.5893 22.5H24.5544V37.0833H19.0856V22.5H15.4398V17.0312H19.0856V13.5258C19.0856 9.83984 21.0252 7.91667 25.3947 7.91667H30.0231V13.3854Z" fill="black"/>
</svg>
