<svg width="45" height="45" viewBox="0 0 45 45" fill="none" xmlns="http://www.w3.org/2000/svg">
<path id="button" d="M28.4374 10.6292C26.9007 10.5599 26.4377 10.5453 22.5439 10.5453C18.6502 10.5453 18.189 10.5599 16.6523 10.6292C12.6965 10.8096 10.8536 12.6836 10.6749 16.6065C10.6038 18.1451 10.5874 18.6062 10.5874 22.5C10.5874 26.3937 10.6038 26.8549 10.6731 28.3935C10.8536 32.3091 12.6893 34.1904 16.6505 34.3708C18.1872 34.4401 18.6502 34.4565 22.5439 34.4565C26.4395 34.4565 26.9007 34.4419 28.4374 34.3727C32.3932 34.1922 34.2343 32.3146 34.4148 28.3953C34.484 26.8568 34.4986 26.3956 34.4986 22.5018C34.4986 18.6081 34.484 18.1469 34.4148 16.6102C34.2343 12.6854 32.3895 10.8096 28.4374 10.6292ZM22.5439 29.9885C18.4077 29.9885 15.0554 26.6362 15.0554 22.5C15.0554 18.3638 18.4096 15.0115 22.5439 15.0115C26.6783 15.0115 30.0325 18.3638 30.0325 22.5C30.0325 26.6362 26.6801 29.9885 22.5439 29.9885ZM30.3296 16.4661C29.3635 16.4661 28.5796 15.6823 28.5796 14.7161C28.5796 13.75 29.3635 12.9661 30.3296 12.9661C31.2958 12.9661 32.0796 13.75 32.0796 14.7161C32.0796 15.6823 31.2958 16.4661 30.3296 16.4661ZM27.4057 22.5C27.4057 25.1852 25.2291 27.3617 22.5439 27.3617C19.8588 27.3617 17.6822 25.1852 17.6822 22.5C17.6822 19.8148 19.8588 17.6383 22.5439 17.6383C25.2291 17.6383 27.4057 19.8148 27.4057 22.5ZM35.3044 0.625H9.78353C4.75046 0.625 0.668945 4.70651 0.668945 9.73958V35.2604C0.668945 40.2935 4.75046 44.375 9.78353 44.375H35.3044C40.3393 44.375 44.4189 40.2935 44.4189 35.2604V9.73958C44.4189 4.70651 40.3393 0.625 35.3044 0.625ZM37.0398 28.512C36.7992 33.8148 33.8479 36.7534 28.5577 36.9958C27.001 37.0669 26.5051 37.0833 22.5439 37.0833C18.5827 37.0833 18.0887 37.0669 16.532 36.9958C11.2309 36.7534 8.29238 33.8094 8.04811 28.512C7.97702 26.957 7.96061 26.4612 7.96061 22.5C7.96061 18.5406 7.97702 18.043 8.04811 16.488C8.29238 11.187 11.2346 8.24661 16.532 8.00599C18.0887 7.93307 18.5827 7.91667 22.5439 7.91667C26.5051 7.91667 27.001 7.93307 28.5577 8.00417C33.8588 8.24661 36.8028 11.1961 37.0398 16.4862C37.1109 18.043 37.1273 18.5406 37.1273 22.5C37.1273 26.4612 37.1109 26.957 37.0398 28.512Z" fill="white"/>
</svg>
