<svg width="232" height="39" viewBox="0 0 232 39" fill="none" xmlns="http://www.w3.org/2000/svg">
<rect x="1.6875" y="2.4375" width="228.125" height="34.375" rx="17.1875" stroke="white" stroke-width="3.125"/>
<path d="M30.5786 16.875C30.5431 16.4311 30.3767 16.0849 30.0793 15.8363C29.7863 15.5877 29.3402 15.4634 28.7409 15.4634C28.3592 15.4634 28.0462 15.51 27.8021 15.6032C27.5624 15.692 27.3848 15.8141 27.2694 15.9695C27.154 16.1248 27.0941 16.3024 27.0896 16.5021C27.0808 16.6664 27.1096 16.8151 27.1762 16.9482C27.2472 17.077 27.3582 17.1946 27.5091 17.3011C27.66 17.4032 27.8531 17.4964 28.0884 17.5808C28.3237 17.6651 28.6033 17.7406 28.9274 17.8072L30.046 18.0469C30.8006 18.2067 31.4464 18.4175 31.9836 18.6794C32.5207 18.9413 32.9601 19.2498 33.3019 19.6049C33.6437 19.9556 33.8945 20.3507 34.0543 20.7901C34.2186 21.2296 34.3029 21.709 34.3073 22.2283C34.3029 23.125 34.0787 23.8841 33.6348 24.5055C33.1909 25.127 32.5562 25.5997 31.7305 25.9237C30.9093 26.2478 29.9217 26.4098 28.7676 26.4098C27.5824 26.4098 26.5481 26.2345 25.6648 25.8838C24.7858 25.5331 24.1023 24.9938 23.614 24.2658C23.1301 23.5334 22.886 22.5968 22.8815 21.456H26.3972C26.4194 21.8732 26.5237 22.2239 26.7101 22.508C26.8966 22.7921 27.1584 23.0074 27.4958 23.1539C27.8376 23.3003 28.2438 23.3736 28.7143 23.3736C29.1094 23.3736 29.4401 23.3248 29.7064 23.2271C29.9727 23.1294 30.1747 22.9941 30.3123 22.8209C30.4499 22.6478 30.5209 22.4503 30.5254 22.2283C30.5209 22.0197 30.4521 21.8377 30.319 21.6824C30.1902 21.5225 29.9772 21.3805 29.6798 21.2562C29.3823 21.1275 28.9806 21.0076 28.4746 20.8967L27.1163 20.6037C25.9089 20.3418 24.9567 19.9046 24.2598 19.292C23.5674 18.675 23.2233 17.8338 23.2278 16.7685C23.2233 15.9029 23.4542 15.146 23.9203 14.498C24.3908 13.8454 25.0411 13.3372 25.8712 12.9732C26.7057 12.6092 27.6623 12.4272 28.7409 12.4272C29.8418 12.4272 30.7939 12.6114 31.5974 12.9798C32.4008 13.3483 33.02 13.8676 33.4551 14.5379C33.8945 15.2037 34.1165 15.9828 34.1209 16.875H30.5786ZM37.5906 26.25V12.6136H43.4766C44.4887 12.6136 45.3742 12.8134 46.1333 13.2129C46.8923 13.6124 47.4827 14.1739 47.9044 14.8975C48.3261 15.621 48.537 16.4666 48.537 17.4343C48.537 18.4109 48.3194 19.2565 47.8844 19.9711C47.4539 20.6858 46.8479 21.2362 46.0667 21.6224C45.2899 22.0086 44.3821 22.2017 43.3434 22.2017H39.8278V19.3253H42.5977C43.0327 19.3253 43.4033 19.2498 43.7096 19.0989C44.0204 18.9435 44.2578 18.7238 44.4221 18.4397C44.5908 18.1556 44.6751 17.8205 44.6751 17.4343C44.6751 17.0437 44.5908 16.7108 44.4221 16.4355C44.2578 16.1559 44.0204 15.9428 43.7096 15.7963C43.4033 15.6454 43.0327 15.57 42.5977 15.57H41.2926V26.25H37.5906ZM51.7703 26.25V12.6136H61.598V15.5966H55.4723V17.9403H61.092V20.9233H55.4723V23.267H61.5714V26.25H51.7703ZM65.3091 26.25V12.6136H75.1369V15.5966H69.0111V17.9403H74.6308V20.9233H69.0111V23.267H75.1102V26.25H65.3091ZM91.5787 17.7273H87.8234C87.7968 17.4165 87.7257 17.1347 87.6103 16.8817C87.4994 16.6286 87.344 16.4111 87.1442 16.2291C86.9489 16.0427 86.7114 15.9007 86.4318 15.803C86.1521 15.7009 85.8348 15.6499 85.4796 15.6499C84.8582 15.6499 84.3322 15.8008 83.9016 16.1026C83.4755 16.4045 83.1514 16.8373 82.9295 17.401C82.712 17.9648 82.6032 18.6417 82.6032 19.4318C82.6032 20.2663 82.7142 20.9655 82.9361 21.5292C83.1625 22.0885 83.4888 22.5102 83.9149 22.7943C84.3411 23.074 84.8538 23.2138 85.453 23.2138C85.7948 23.2138 86.1011 23.1716 86.3719 23.0873C86.6426 22.9985 86.8779 22.872 87.0777 22.7077C87.2774 22.5435 87.4394 22.346 87.5637 22.1151C87.6924 21.8799 87.779 21.6158 87.8234 21.3228L91.5787 21.3494C91.5343 21.9265 91.3723 22.5146 91.0927 23.1139C90.813 23.7087 90.4157 24.2591 89.9008 24.7652C89.3903 25.2668 88.7578 25.6707 88.0032 25.977C87.2486 26.2833 86.3719 26.4364 85.3731 26.4364C84.1213 26.4364 82.9983 26.1679 82.004 25.6308C81.0141 25.0937 80.2306 24.3035 79.6536 23.2604C79.0809 22.2172 78.7946 20.9411 78.7946 19.4318C78.7946 17.9137 79.0876 16.6353 79.6735 15.5966C80.2595 14.5534 81.0496 13.7655 82.0439 13.2329C83.0382 12.6958 84.148 12.4272 85.3731 12.4272C86.2343 12.4272 87.0266 12.5448 87.7502 12.7801C88.4737 13.0154 89.1085 13.3594 89.6545 13.8121C90.2004 14.2605 90.6399 14.8131 90.9728 15.4701C91.3057 16.127 91.5077 16.8794 91.5787 17.7273ZM95.1333 26.25V12.6136H98.8354V17.9403H103.736V12.6136H107.438V26.25H103.736V20.9233H98.8354V26.25H95.1333ZM116.308 15.5966V12.6136H128.16V15.5966H124.059V26.25H120.41V15.5966H116.308ZM143.998 19.4318C143.998 20.9499 143.703 22.2306 143.112 23.2737C142.522 24.3124 141.725 25.1003 140.722 25.6374C139.719 26.1701 138.6 26.4364 137.366 26.4364C136.123 26.4364 135 26.1679 133.997 25.6308C132.998 25.0892 132.204 24.2991 131.613 23.2604C131.027 22.2172 130.734 20.9411 130.734 19.4318C130.734 17.9137 131.027 16.6353 131.613 15.5966C132.204 14.5534 132.998 13.7655 133.997 13.2329C135 12.6958 136.123 12.4272 137.366 12.4272C138.6 12.4272 139.719 12.6958 140.722 13.2329C141.725 13.7655 142.522 14.5534 143.112 15.5966C143.703 16.6353 143.998 17.9137 143.998 19.4318ZM140.189 19.4318C140.189 18.6151 140.08 17.927 139.863 17.3677C139.65 16.804 139.333 16.3778 138.911 16.0893C138.494 15.7963 137.979 15.6499 137.366 15.6499C136.754 15.6499 136.236 15.7963 135.815 16.0893C135.397 16.3778 135.08 16.804 134.863 17.3677C134.649 17.927 134.543 18.6151 134.543 19.4318C134.543 20.2486 134.649 20.9388 134.863 21.5026C135.08 22.0619 135.397 22.488 135.815 22.781C136.236 23.0695 136.754 23.2138 137.366 23.2138C137.979 23.2138 138.494 23.0695 138.911 22.781C139.333 22.488 139.65 22.0619 139.863 21.5026C140.08 20.9388 140.189 20.2486 140.189 19.4318ZM152.823 15.5966V12.6136H164.675V15.5966H160.574V26.25H156.925V15.5966H152.823ZM167.943 26.25V12.6136H177.771V15.5966H171.645V17.9403H177.265V20.9233H171.645V23.267H177.744V26.25H167.943ZM185.451 12.6136L187.688 16.582H187.794L190.058 12.6136H194.186L190.111 19.4318L194.346 26.25H190.111L187.794 22.2017H187.688L185.371 26.25H181.163L185.344 19.4318L181.296 12.6136H185.451ZM197.285 15.5966V12.6136H209.137V15.5966H205.035V26.25H201.386V15.5966H197.285Z" fill="white"/>
</svg>
