<svg width="232" height="39" viewBox="0 0 232 39" fill="none" xmlns="http://www.w3.org/2000/svg">
<rect x="1.6875" y="2.4375" width="228.125" height="34.375" rx="17.1875" fill="white"/>
<path d="M22.8545 15.5966V12.6137H34.7064V15.5966H30.6048V26.25H26.9561V15.5966H22.8545Z" fill="#281E11"/>
<path d="M37.9747 26.25V12.6137H47.8024V15.5966H41.6767V17.9404H47.2964V20.9233H41.6767V23.2671H47.7758V26.25H37.9747Z" fill="#281E11"/>
<path d="M55.4819 12.6137L57.7191 16.5821H57.8256L60.0895 12.6137H64.2177L60.1428 19.4319L64.3775 26.25H60.1428L57.8256 22.2017H57.7191L55.402 26.25H51.1939L55.3754 19.4319L51.3271 12.6137H55.4819Z" fill="#281E11"/>
<path d="M67.3162 15.5966V12.6137H79.1681V15.5966H75.0665V26.25H71.4177V15.5966H67.3162Z" fill="#281E11"/>
<path d="M87.6738 15.5966V12.6137H99.5257V15.5966H95.4242V26.25H91.7754V15.5966H87.6738Z" fill="#281E11"/>
<path d="M115.363 19.4319C115.363 20.95 115.068 22.2306 114.478 23.2737C113.887 24.3125 113.091 25.1004 112.087 25.6375C111.084 26.1701 109.966 26.4365 108.732 26.4365C107.489 26.4365 106.366 26.1679 105.362 25.6308C104.364 25.0893 103.569 24.2991 102.979 23.2604C102.393 22.2173 102.1 20.9411 102.1 19.4319C102.1 17.9138 102.393 16.6353 102.979 15.5966C103.569 14.5535 104.364 13.7656 105.362 13.2329C106.366 12.6958 107.489 12.4272 108.732 12.4272C109.966 12.4272 111.084 12.6958 112.087 13.2329C113.091 13.7656 113.887 14.5535 114.478 15.5966C115.068 16.6353 115.363 17.9138 115.363 19.4319ZM111.555 19.4319C111.555 18.6151 111.446 17.9271 111.229 17.3678C111.015 16.804 110.698 16.3779 110.276 16.0894C109.859 15.7964 109.344 15.6499 108.732 15.6499C108.119 15.6499 107.602 15.7964 107.18 16.0894C106.763 16.3779 106.446 16.804 106.228 17.3678C106.015 17.9271 105.908 18.6151 105.908 19.4319C105.908 20.2486 106.015 20.9389 106.228 21.5026C106.446 22.0619 106.763 22.4881 107.18 22.781C107.602 23.0696 108.119 23.2138 108.732 23.2138C109.344 23.2138 109.859 23.0696 110.276 22.781C110.698 22.4881 111.015 22.0619 111.229 21.5026C111.446 20.9389 111.555 20.2486 111.555 19.4319Z" fill="#281E11"/>
<path d="M131.912 16.875C131.877 16.4312 131.71 16.0849 131.413 15.8363C131.12 15.5878 130.674 15.4635 130.075 15.4635C129.693 15.4635 129.38 15.5101 129.136 15.6033C128.896 15.6921 128.719 15.8141 128.603 15.9695C128.488 16.1249 128.428 16.3024 128.423 16.5022C128.415 16.6664 128.443 16.8151 128.51 16.9483C128.581 17.077 128.692 17.1946 128.843 17.3012C128.994 17.4033 129.187 17.4965 129.422 17.5808C129.657 17.6652 129.937 17.7406 130.261 17.8072L131.38 18.0469C132.134 18.2067 132.78 18.4176 133.317 18.6795C133.854 18.9414 134.294 19.2499 134.636 19.605C134.978 19.9557 135.228 20.3507 135.388 20.7902C135.552 21.2296 135.637 21.709 135.641 22.2284C135.637 23.125 135.413 23.8841 134.969 24.5055C134.525 25.127 133.89 25.5997 133.064 25.9238C132.243 26.2478 131.255 26.4098 130.101 26.4098C128.916 26.4098 127.882 26.2345 126.999 25.8838C126.12 25.5332 125.436 24.9938 124.948 24.2658C124.464 23.5334 124.22 22.5968 124.215 21.456H127.731C127.753 21.8733 127.857 22.2239 128.044 22.508C128.23 22.7921 128.492 23.0074 128.83 23.1539C129.171 23.3004 129.578 23.3736 130.048 23.3736C130.443 23.3736 130.774 23.3248 131.04 23.2271C131.307 23.1295 131.509 22.9941 131.646 22.821C131.784 22.6479 131.855 22.4503 131.859 22.2284C131.855 22.0198 131.786 21.8378 131.653 21.6824C131.524 21.5226 131.311 21.3805 131.014 21.2563C130.716 21.1275 130.314 21.0077 129.808 20.8967L128.45 20.6037C127.243 20.3418 126.291 19.9046 125.594 19.292C124.901 18.675 124.557 17.8339 124.562 16.7685C124.557 15.9029 124.788 15.1461 125.254 14.498C125.725 13.8455 126.375 13.3372 127.205 12.9732C128.039 12.6092 128.996 12.4272 130.075 12.4272C131.176 12.4272 132.128 12.6115 132.931 12.9799C133.735 13.3483 134.354 13.8677 134.789 14.538C135.228 15.2038 135.45 15.9828 135.455 16.875H131.912Z" fill="#281E11"/>
<path d="M138.924 26.25V12.6137H144.81C145.822 12.6137 146.708 12.8134 147.467 13.2129C148.226 13.6124 148.817 14.174 149.238 14.8975C149.66 15.621 149.871 16.4667 149.871 17.4343C149.871 18.4109 149.653 19.2565 149.218 19.9712C148.788 20.6859 148.182 21.2363 147.401 21.6225C146.624 22.0087 145.716 22.2017 144.677 22.2017H141.162V19.3253H143.931C144.367 19.3253 144.737 19.2499 145.043 19.0989C145.354 18.9436 145.592 18.7239 145.756 18.4398C145.925 18.1557 146.009 17.8205 146.009 17.4343C146.009 17.0437 145.925 16.7108 145.756 16.4356C145.592 16.1559 145.354 15.9429 145.043 15.7964C144.737 15.6455 144.367 15.57 143.931 15.57H142.626V26.25H138.924Z" fill="#281E11"/>
<path d="M153.104 26.25V12.6137H162.932V15.5966H156.806V17.9404H162.426V20.9233H156.806V23.2671H162.905V26.25H153.104Z" fill="#281E11"/>
<path d="M166.643 26.25V12.6137H176.471V15.5966H170.345V17.9404H175.965V20.9233H170.345V23.2671H176.444V26.25H166.643Z" fill="#281E11"/>
<path d="M192.913 17.7273H189.157C189.131 17.4166 189.06 17.1347 188.944 16.8817C188.833 16.6287 188.678 16.4112 188.478 16.2292C188.283 16.0427 188.045 15.9007 187.766 15.803C187.486 15.7009 187.169 15.6499 186.813 15.6499C186.192 15.6499 185.666 15.8008 185.235 16.1027C184.809 16.4045 184.485 16.8373 184.263 17.4011C184.046 17.9648 183.937 18.6417 183.937 19.4319C183.937 20.2664 184.048 20.9655 184.27 21.5293C184.496 22.0886 184.823 22.5103 185.249 22.7943C185.675 23.074 186.188 23.2138 186.787 23.2138C187.129 23.2138 187.435 23.1717 187.706 23.0873C187.976 22.9985 188.212 22.872 188.411 22.7078C188.611 22.5435 188.773 22.346 188.898 22.1152C189.026 21.8799 189.113 21.6158 189.157 21.3228L192.913 21.3495C192.868 21.9265 192.706 22.5147 192.426 23.1139C192.147 23.7088 191.75 24.2592 191.235 24.7652C190.724 25.2668 190.092 25.6708 189.337 25.9771C188.582 26.2833 187.706 26.4365 186.707 26.4365C185.455 26.4365 184.332 26.1679 183.338 25.6308C182.348 25.0937 181.564 24.3036 180.987 23.2604C180.415 22.2173 180.128 20.9411 180.128 19.4319C180.128 17.9138 180.421 16.6353 181.007 15.5966C181.593 14.5535 182.383 13.7656 183.378 13.2329C184.372 12.6958 185.482 12.4272 186.707 12.4272C187.568 12.4272 188.36 12.5449 189.084 12.7801C189.808 13.0154 190.442 13.3594 190.988 13.8122C191.534 14.2605 191.974 14.8132 192.307 15.4701C192.64 16.1271 192.842 16.8795 192.913 17.7273Z" fill="#281E11"/>
<path d="M196.467 26.25V12.6137H200.169V17.9404H205.07V12.6137H208.772V26.25H205.07V20.9233H200.169V26.25H196.467Z" fill="#281E11"/>
<rect x="1.6875" y="2.4375" width="228.125" height="34.375" rx="17.1875" stroke="#281E11" stroke-width="3.125"/>
</svg>
