<svg width="926" height="39" viewBox="0 0 926 39" fill="none" xmlns="http://www.w3.org/2000/svg">
<path d="M358.942 17.4773H355.187C355.16 17.1666 355.089 16.8847 354.974 16.6317C354.863 16.3787 354.708 16.1612 354.508 15.9792C354.312 15.7927 354.075 15.6507 353.795 15.553C353.516 15.4509 353.198 15.3999 352.843 15.3999C352.222 15.3999 351.696 15.5508 351.265 15.8527C350.839 16.1545 350.515 16.5873 350.293 17.1511C350.076 17.7148 349.967 18.3917 349.967 19.1819C349.967 20.0164 350.078 20.7155 350.3 21.2793C350.526 21.8386 350.852 22.2603 351.278 22.5443C351.705 22.824 352.217 22.9638 352.817 22.9638C353.158 22.9638 353.465 22.9217 353.735 22.8373C354.006 22.7485 354.241 22.622 354.441 22.4578C354.641 22.2935 354.803 22.096 354.927 21.8652C355.056 21.6299 355.143 21.3658 355.187 21.0728L358.942 21.0995C358.898 21.6765 358.736 22.2647 358.456 22.8639C358.177 23.4588 357.779 24.0092 357.264 24.5152C356.754 25.0168 356.121 25.4208 355.367 25.7271C354.612 26.0333 353.735 26.1865 352.737 26.1865C351.485 26.1865 350.362 25.9179 349.368 25.3808C348.378 24.8437 347.594 24.0536 347.017 23.0104C346.445 21.9673 346.158 20.6911 346.158 19.1819C346.158 17.6638 346.451 16.3853 347.037 15.3466C347.623 14.3035 348.413 13.5156 349.407 12.9829C350.402 12.4458 351.512 12.1772 352.737 12.1772C353.598 12.1772 354.39 12.2949 355.114 12.5301C355.837 12.7654 356.472 13.1094 357.018 13.5622C357.564 14.0105 358.003 14.5632 358.336 15.2201C358.669 15.8771 358.871 16.6295 358.942 17.4773Z" fill="#9F9F9F"/>
<path d="M375.707 19.1819C375.707 20.7 375.412 21.9806 374.822 23.0237C374.231 24.0625 373.434 24.8504 372.431 25.3875C371.428 25.9201 370.309 26.1865 369.075 26.1865C367.832 26.1865 366.709 25.9179 365.706 25.3808C364.707 24.8393 363.913 24.0491 363.323 23.0104C362.737 21.9673 362.444 20.6911 362.444 19.1819C362.444 17.6638 362.737 16.3853 363.323 15.3466C363.913 14.3035 364.707 13.5156 365.706 12.9829C366.709 12.4458 367.832 12.1772 369.075 12.1772C370.309 12.1772 371.428 12.4458 372.431 12.9829C373.434 13.5156 374.231 14.3035 374.822 15.3466C375.412 16.3853 375.707 17.6638 375.707 19.1819ZM371.899 19.1819C371.899 18.3651 371.79 17.6771 371.572 17.1178C371.359 16.554 371.042 16.1279 370.62 15.8394C370.203 15.5464 369.688 15.3999 369.075 15.3999C368.463 15.3999 367.946 15.5464 367.524 15.8394C367.107 16.1279 366.789 16.554 366.572 17.1178C366.359 17.6771 366.252 18.3651 366.252 19.1819C366.252 19.9986 366.359 20.6889 366.572 21.2526C366.789 21.8119 367.107 22.2381 367.524 22.531C367.946 22.8196 368.463 22.9638 369.075 22.9638C369.688 22.9638 370.203 22.8196 370.62 22.531C371.042 22.2381 371.359 21.8119 371.572 21.2526C371.79 20.6889 371.899 19.9986 371.899 19.1819Z" fill="#9F9F9F"/>
<path d="M391.094 12.3637V26H388.004L383.077 18.8356H382.997V26H379.295V12.3637H382.438L387.285 19.5015H387.392V12.3637H391.094Z" fill="#9F9F9F"/>
<path d="M398.448 12.3637L401.245 21.9784H401.352L404.148 12.3637H408.33L403.828 26H398.768L394.267 12.3637H398.448Z" fill="#9F9F9F"/>
<path d="M411.518 26V12.3637H421.346V15.3466H415.22V17.6904H420.84V20.6733H415.22V23.0171H421.319V26H411.518Z" fill="#9F9F9F"/>
<path d="M425.057 26V12.3637H430.943C431.955 12.3637 432.84 12.5479 433.599 12.9163C434.358 13.2848 434.949 13.8152 435.371 14.5077C435.792 15.2002 436.003 16.0302 436.003 16.9979C436.003 17.9745 435.786 18.7979 435.351 19.4682C434.92 20.1385 434.314 20.6445 433.533 20.9863C432.756 21.3281 431.848 21.499 430.81 21.499H427.294V18.6226H430.064C430.499 18.6226 430.869 18.5693 431.176 18.4628C431.486 18.3518 431.724 18.1764 431.888 17.9367C432.057 17.697 432.141 17.3841 432.141 16.9979C432.141 16.6073 432.057 16.2899 431.888 16.0458C431.724 15.7972 431.486 15.6152 431.176 15.4998C430.869 15.3799 430.499 15.32 430.064 15.32H428.759V26H425.057ZM433.047 19.7412L436.456 26H432.434L429.105 19.7412H433.047Z" fill="#9F9F9F"/>
<path d="M439.083 15.3466V12.3637H450.935V15.3466H446.834V26H443.185V15.3466H439.083Z" fill="#9F9F9F"/>
<path d="M459.441 15.3466V12.3637H471.293V15.3466H467.191V26H463.542V15.3466H459.441Z" fill="#9F9F9F"/>
<path d="M487.13 19.1819C487.13 20.7 486.835 21.9806 486.245 23.0237C485.654 24.0625 484.858 24.8504 483.855 25.3875C482.851 25.9201 481.733 26.1865 480.499 26.1865C479.256 26.1865 478.133 25.9179 477.13 25.3808C476.131 24.8393 475.336 24.0491 474.746 23.0104C474.16 21.9673 473.867 20.6911 473.867 19.1819C473.867 17.6638 474.16 16.3853 474.746 15.3466C475.336 14.3035 476.131 13.5156 477.13 12.9829C478.133 12.4458 479.256 12.1772 480.499 12.1772C481.733 12.1772 482.851 12.4458 483.855 12.9829C484.858 13.5156 485.654 14.3035 486.245 15.3466C486.835 16.3853 487.13 17.6638 487.13 19.1819ZM483.322 19.1819C483.322 18.3651 483.213 17.6771 482.996 17.1178C482.783 16.554 482.465 16.1279 482.043 15.8394C481.626 15.5464 481.111 15.3999 480.499 15.3999C479.886 15.3999 479.369 15.5464 478.947 15.8394C478.53 16.1279 478.213 16.554 477.995 17.1178C477.782 17.6771 477.676 18.3651 477.676 19.1819C477.676 19.9986 477.782 20.6889 477.995 21.2526C478.213 21.8119 478.53 22.2381 478.947 22.531C479.369 22.8196 479.886 22.9638 480.499 22.9638C481.111 22.9638 481.626 22.8196 482.043 22.531C482.465 22.2381 482.783 21.8119 482.996 21.2526C483.213 20.6889 483.322 19.9986 483.322 19.1819Z" fill="#9F9F9F"/>
<path d="M503.68 16.625C503.644 16.1812 503.478 15.8349 503.18 15.5863C502.887 15.3378 502.441 15.2135 501.842 15.2135C501.46 15.2135 501.147 15.2601 500.903 15.3533C500.663 15.4421 500.486 15.5641 500.37 15.7195C500.255 15.8749 500.195 16.0524 500.191 16.2522C500.182 16.4164 500.21 16.5651 500.277 16.6983C500.348 16.827 500.459 16.9446 500.61 17.0512C500.761 17.1533 500.954 17.2465 501.189 17.3308C501.425 17.4152 501.704 17.4906 502.028 17.5572L503.147 17.7969C503.901 17.9567 504.547 18.1676 505.084 18.4295C505.622 18.6914 506.061 18.9999 506.403 19.355C506.745 19.7057 506.995 20.1007 507.155 20.5402C507.319 20.9796 507.404 21.459 507.408 21.9784C507.404 22.875 507.18 23.6341 506.736 24.2555C506.292 24.877 505.657 25.3497 504.831 25.6738C504.01 25.9978 503.023 26.1598 501.868 26.1598C500.683 26.1598 499.649 25.9845 498.766 25.6338C497.887 25.2832 497.203 24.7438 496.715 24.0158C496.231 23.2834 495.987 22.3468 495.982 21.206H499.498C499.52 21.6233 499.625 21.9739 499.811 22.258C499.997 22.5421 500.259 22.7574 500.597 22.9039C500.938 23.0504 501.345 23.1236 501.815 23.1236C502.21 23.1236 502.541 23.0748 502.807 22.9771C503.074 22.8795 503.276 22.7441 503.413 22.571C503.551 22.3979 503.622 22.2003 503.626 21.9784C503.622 21.7698 503.553 21.5878 503.42 21.4324C503.291 21.2726 503.078 21.1305 502.781 21.0063C502.483 20.8775 502.081 20.7577 501.575 20.6467L500.217 20.3537C499.01 20.0918 498.058 19.6546 497.361 19.042C496.668 18.425 496.324 17.5839 496.329 16.5185C496.324 15.6529 496.555 14.8961 497.021 14.248C497.492 13.5955 498.142 13.0872 498.972 12.7232C499.807 12.3592 500.763 12.1772 501.842 12.1772C502.943 12.1772 503.895 12.3615 504.698 12.7299C505.502 13.0983 506.121 13.6177 506.556 14.288C506.995 14.9538 507.217 15.7328 507.222 16.625H503.68Z" fill="#9F9F9F"/>
<path d="M510.691 26V12.3637H516.577C517.59 12.3637 518.475 12.5634 519.234 12.9629C519.993 13.3624 520.584 13.924 521.005 14.6475C521.427 15.371 521.638 16.2167 521.638 17.1843C521.638 18.1609 521.42 19.0065 520.985 19.7212C520.555 20.4359 519.949 20.9863 519.168 21.3725C518.391 21.7587 517.483 21.9517 516.444 21.9517H512.929V19.0753H515.699C516.134 19.0753 516.504 18.9999 516.811 18.8489C517.121 18.6936 517.359 18.4739 517.523 18.1898C517.692 17.9057 517.776 17.5705 517.776 17.1843C517.776 16.7937 517.692 16.4608 517.523 16.1856C517.359 15.9059 517.121 15.6929 516.811 15.5464C516.504 15.3955 516.134 15.32 515.699 15.32H514.394V26H510.691Z" fill="#9F9F9F"/>
<path d="M524.871 26V12.3637H534.699V15.3466H528.573V17.6904H534.193V20.6733H528.573V23.0171H534.672V26H524.871Z" fill="#9F9F9F"/>
<path d="M538.41 26V12.3637H548.238V15.3466H542.112V17.6904H547.732V20.6733H542.112V23.0171H548.211V26H538.41Z" fill="#9F9F9F"/>
<path d="M564.68 17.4773H560.924C560.898 17.1666 560.827 16.8847 560.711 16.6317C560.6 16.3787 560.445 16.1612 560.245 15.9792C560.05 15.7927 559.812 15.6507 559.533 15.553C559.253 15.4509 558.936 15.3999 558.581 15.3999C557.959 15.3999 557.433 15.5508 557.002 15.8527C556.576 16.1545 556.252 16.5873 556.03 17.1511C555.813 17.7148 555.704 18.3917 555.704 19.1819C555.704 20.0164 555.815 20.7155 556.037 21.2793C556.263 21.8386 556.59 22.2603 557.016 22.5443C557.442 22.824 557.955 22.9638 558.554 22.9638C558.896 22.9638 559.202 22.9217 559.473 22.8373C559.744 22.7485 559.979 22.622 560.179 22.4578C560.378 22.2935 560.54 22.096 560.665 21.8652C560.793 21.6299 560.88 21.3658 560.924 21.0728L564.68 21.0995C564.635 21.6765 564.473 22.2647 564.194 22.8639C563.914 23.4588 563.517 24.0092 563.002 24.5152C562.491 25.0168 561.859 25.4208 561.104 25.7271C560.349 26.0333 559.473 26.1865 558.474 26.1865C557.222 26.1865 556.099 25.9179 555.105 25.3808C554.115 24.8437 553.331 24.0536 552.754 23.0104C552.182 21.9673 551.896 20.6911 551.896 19.1819C551.896 17.6638 552.188 16.3853 552.774 15.3466C553.36 14.3035 554.15 13.5156 555.145 12.9829C556.139 12.4458 557.249 12.1772 558.474 12.1772C559.335 12.1772 560.127 12.2949 560.851 12.5301C561.575 12.7654 562.209 13.1094 562.755 13.5622C563.301 14.0105 563.741 14.5632 564.074 15.2201C564.407 15.8771 564.609 16.6295 564.68 17.4773Z" fill="#9F9F9F"/>
<path d="M568.234 26V12.3637H571.936V17.6904H576.837V12.3637H580.539V26H576.837V20.6733H571.936V26H568.234Z" fill="#9F9F9F"/>
<rect x="311.438" y="2.1875" width="303.125" height="34.375" rx="17.1875" stroke="#9F9F9F" stroke-width="3.125"/>
</svg>
