<svg width="232" height="45" viewBox="0 0 232 45" fill="none" xmlns="http://www.w3.org/2000/svg">
<path d="M28.1249 10.6292C26.5882 10.5599 26.1252 10.5453 22.2314 10.5453C18.3377 10.5453 17.8765 10.5599 16.3398 10.6292C12.384 10.8096 10.5411 12.6836 10.3624 16.6065C10.2913 18.1451 10.2749 18.6062 10.2749 22.5C10.2749 26.3937 10.2913 26.8549 10.3606 28.3935C10.5411 32.3091 12.3768 34.1904 16.338 34.3708C17.8747 34.4401 18.3377 34.4565 22.2314 34.4565C26.127 34.4565 26.5882 34.4419 28.1249 34.3727C32.0807 34.1922 33.9218 32.3146 34.1023 28.3953C34.1715 26.8568 34.1861 26.3956 34.1861 22.5018C34.1861 18.6081 34.1715 18.1469 34.1023 16.6102C33.9218 12.6854 32.077 10.8096 28.1249 10.6292ZM22.2314 29.9885C18.0952 29.9885 14.7429 26.6362 14.7429 22.5C14.7429 18.3638 18.0971 15.0115 22.2314 15.0115C26.3658 15.0115 29.72 18.3638 29.72 22.5C29.72 26.6362 26.3676 29.9885 22.2314 29.9885ZM30.0171 16.4661C29.051 16.4661 28.2671 15.6823 28.2671 14.7161C28.2671 13.75 29.051 12.9661 30.0171 12.9661C30.9833 12.9661 31.7671 13.75 31.7671 14.7161C31.7671 15.6823 30.9833 16.4661 30.0171 16.4661ZM27.0932 22.5C27.0932 25.1852 24.9166 27.3617 22.2314 27.3617C19.5463 27.3617 17.3697 25.1852 17.3697 22.5C17.3697 19.8148 19.5463 17.6383 22.2314 17.6383C24.9166 17.6383 27.0932 19.8148 27.0932 22.5ZM34.9919 0.625H9.47103C4.43796 0.625 0.356445 4.70651 0.356445 9.73958V35.2604C0.356445 40.2935 4.43796 44.375 9.47103 44.375H34.9919C40.0268 44.375 44.1064 40.2935 44.1064 35.2604V9.73958C44.1064 4.70651 40.0268 0.625 34.9919 0.625ZM36.7273 28.512C36.4867 33.8148 33.5354 36.7534 28.2452 36.9958C26.6885 37.0669 26.1926 37.0833 22.2314 37.0833C18.2702 37.0833 17.7762 37.0669 16.2195 36.9958C10.9184 36.7534 7.97988 33.8094 7.73561 28.512C7.66452 26.957 7.64811 26.4612 7.64811 22.5C7.64811 18.5406 7.66452 18.043 7.73561 16.488C7.97988 11.187 10.9221 8.24661 16.2195 8.00599C17.7762 7.93307 18.2702 7.91667 22.2314 7.91667C26.1926 7.91667 26.6885 7.93307 28.2452 8.00417C33.5463 8.24661 36.4903 11.1961 36.7273 16.4862C36.7984 18.043 36.8148 18.5406 36.8148 22.5C36.8148 26.4612 36.7984 26.957 36.7273 28.512Z" fill="black"/>
<path fill-rule="evenodd" clip-rule="evenodd" d="M128.742 44.375H103.221C98.188 44.375 94.1064 40.2935 94.1064 35.2604V9.73958C94.1064 4.70651 98.188 0.625 103.221 0.625H128.742C133.777 0.625 137.856 4.70651 137.856 9.73958V35.2604C137.856 40.2935 133.777 44.375 128.742 44.375ZM123.74 34.9906C124.132 35.2695 124.635 35.3388 125.085 35.1674C125.534 34.9979 125.865 34.6133 125.966 34.1466C127.021 29.1846 129.584 16.6211 130.545 12.1076C130.616 11.7667 130.496 11.413 130.229 11.1852C129.961 10.9591 129.59 10.8935 129.26 11.0156C124.165 12.9005 108.471 18.7885 102.056 21.1638C101.65 21.3133 101.385 21.7052 101.398 22.1354C101.413 22.5638 101.703 22.9375 102.118 23.0633C104.995 23.9219 108.772 25.1195 108.772 25.1195C108.772 25.1195 110.535 30.4497 111.455 33.1586C111.57 33.4995 111.838 33.7674 112.188 33.8586C112.54 33.9497 112.912 33.8549 113.174 33.607C114.653 32.2125 116.937 30.056 116.937 30.056C116.937 30.056 121.277 33.2388 123.74 34.9906ZM110.36 24.4469L112.399 31.1771L112.853 26.9151C112.853 26.9151 120.736 19.8057 125.231 15.7516C125.362 15.6331 125.38 15.4344 125.271 15.294C125.162 15.1536 124.963 15.1208 124.813 15.2156C119.605 18.5424 110.36 24.4469 110.36 24.4469Z" fill="black"/>
<path d="M222.492 0.625H196.971C191.938 0.625 187.856 4.70651 187.856 9.73958V35.2604C187.856 40.2935 191.938 44.375 196.971 44.375H222.492C227.527 44.375 231.606 40.2935 231.606 35.2604V9.73958C231.606 4.70651 227.527 0.625 222.492 0.625ZM217.023 13.3854H213.516C212.395 13.3854 211.554 13.8448 211.554 15.006V17.0312H217.023L216.589 22.5H211.554V37.0833H206.086V22.5H202.44V17.0312H206.086V13.5258C206.086 9.83984 208.025 7.91667 212.395 7.91667H217.023V13.3854Z" fill="black"/>
</svg>
