<svg width="327" height="55" viewBox="0 0 327 55" fill="none" xmlns="http://www.w3.org/2000/svg">
<path d="M11.4141 42.3242C8.06608 42.3242 5.33577 41.0173 3.22314 38.4033C1.12842 35.7715 0.0810547 31.9132 0.0810547 26.8286C0.0810547 21.6903 1.14632 17.8052 3.27686 15.1733C5.40739 12.5236 8.19141 11.1987 11.6289 11.1987C13.0612 11.1987 14.3234 11.3957 15.4155 11.7896C16.5077 12.1834 17.4476 12.7116 18.2354 13.374C19.041 14.0365 19.7214 14.7795 20.2764 15.603H20.5449C20.4375 15.0301 20.3032 14.1886 20.1421 13.0786C19.9989 11.9507 19.9272 10.7959 19.9272 9.61426V0H28.145V41.7871H21.8608L20.2764 37.8931H19.9272C19.408 38.7166 18.7546 39.4686 17.9668 40.1489C17.1969 40.8114 16.2749 41.3395 15.2007 41.7334C14.1265 42.1273 12.8643 42.3242 11.4141 42.3242ZM14.2876 35.7983C16.5256 35.7983 18.1011 35.1359 19.0142 33.811C19.9452 32.4683 20.4375 30.4541 20.4912 27.7686V26.8823C20.4912 23.964 20.0436 21.735 19.1484 20.1953C18.2533 18.6377 16.5882 17.8589 14.1533 17.8589C12.3451 17.8589 10.9307 18.6377 9.91016 20.1953C8.88965 21.7529 8.37939 23.9998 8.37939 26.936C8.37939 29.8722 8.88965 32.0833 9.91016 33.5693C10.9486 35.0553 12.4077 35.7983 14.2876 35.7983Z" fill="white"/>
<path d="M43.8028 11.7627V41.7871H35.6119V11.7627H43.8028ZM39.7208 0C40.9383 0 41.9856 0.286458 42.8629 0.859375C43.7402 1.41439 44.1788 2.46175 44.1788 4.00146C44.1788 5.52327 43.7402 6.57959 42.8629 7.17041C41.9856 7.74333 40.9383 8.02979 39.7208 8.02979C38.4855 8.02979 37.4291 7.74333 36.5519 7.17041C35.6925 6.57959 35.2628 5.52327 35.2628 4.00146C35.2628 2.46175 35.6925 1.41439 36.5519 0.859375C37.4291 0.286458 38.4855 0 39.7208 0Z" fill="white"/>
<path d="M60.1052 55C55.9157 55 52.711 54.2659 50.4909 52.7979C48.2888 51.3477 47.1877 49.3066 47.1877 46.6748C47.1877 44.8665 47.7517 43.3537 48.8796 42.1362C50.0075 40.9188 51.6636 40.0505 53.8479 39.5312C53.0064 39.1732 52.2723 38.5913 51.6457 37.7856C51.0191 36.9621 50.7058 36.0938 50.7058 35.1807C50.7058 34.0348 51.037 33.0859 51.6994 32.334C52.3618 31.5641 53.3197 30.8122 54.5729 30.0781C52.9974 29.3978 51.7442 28.3057 50.8132 26.8018C49.9001 25.2979 49.4436 23.5254 49.4436 21.4844C49.4436 19.3001 49.918 17.4471 50.8669 15.9253C51.8337 14.3856 53.2302 13.2129 55.0563 12.4072C56.9004 11.6016 59.1384 11.1987 61.7702 11.1987C62.3252 11.1987 62.9698 11.2345 63.7038 11.3062C64.4379 11.3778 65.1092 11.4583 65.718 11.5479C66.3446 11.6374 66.7653 11.709 66.9802 11.7627H77.4538V15.9253L72.7541 17.1338C73.1838 17.7962 73.5061 18.5034 73.7209 19.2554C73.9357 20.0073 74.0432 20.804 74.0432 21.6455C74.0432 24.8682 72.9152 27.3836 70.6594 29.1919C68.4214 30.9823 65.3062 31.8774 61.3137 31.8774C60.3648 31.8237 59.4696 31.7521 58.6281 31.6626C58.2163 31.9849 57.903 32.325 57.6882 32.6831C57.4733 33.0412 57.3659 33.4172 57.3659 33.811C57.3659 34.2049 57.5271 34.5361 57.8493 34.8047C58.1895 35.0553 58.6908 35.2523 59.3532 35.3955C60.0336 35.5208 60.875 35.5835 61.8776 35.5835H66.9802C70.2745 35.5835 72.781 36.2907 74.4997 37.7051C76.2364 39.1195 77.1047 41.1963 77.1047 43.9355C77.1047 47.4447 75.6366 50.166 72.7004 52.0996C69.7821 54.0332 65.5837 55 60.1052 55ZM60.4543 49.6558C62.4058 49.6558 64.0798 49.4678 65.4763 49.0918C66.8907 48.7337 67.9738 48.2145 68.7258 47.5342C69.4777 46.8717 69.8537 46.075 69.8537 45.144C69.8537 44.3921 69.6299 43.7923 69.1823 43.3447C68.7526 42.915 68.0902 42.6107 67.195 42.4316C66.3177 42.2526 65.1898 42.1631 63.8112 42.1631H59.5681C58.5655 42.1631 57.6613 42.3242 56.8557 42.6465C56.0679 42.9688 55.4413 43.4163 54.9758 43.9893C54.5103 44.5801 54.2775 45.2604 54.2775 46.0303C54.2775 47.1582 54.8146 48.0444 55.8889 48.689C56.981 49.3335 58.5028 49.6558 60.4543 49.6558ZM61.7702 26.8823C63.3099 26.8823 64.4379 26.4079 65.154 25.459C65.8702 24.5101 66.2282 23.221 66.2282 21.5918C66.2282 19.7835 65.8522 18.4318 65.1003 17.5366C64.3662 16.6235 63.2562 16.167 61.7702 16.167C60.2663 16.167 59.1384 16.6235 58.3864 17.5366C57.6345 18.4318 57.2585 19.7835 57.2585 21.5918C57.2585 23.221 57.6255 24.5101 58.3596 25.459C59.1115 26.4079 60.2484 26.8823 61.7702 26.8823Z" fill="white"/>
<path d="M89.513 11.7627V41.7871H81.3221V11.7627H89.513ZM85.431 0C86.6484 0 87.6958 0.286458 88.573 0.859375C89.4503 1.41439 89.889 2.46175 89.889 4.00146C89.889 5.52327 89.4503 6.57959 88.573 7.17041C87.6958 7.74333 86.6484 8.02979 85.431 8.02979C84.1956 8.02979 83.1393 7.74333 82.262 7.17041C81.4026 6.57959 80.9729 5.52327 80.9729 4.00146C80.9729 2.46175 81.4026 1.41439 82.262 0.859375C83.1393 0.286458 84.1956 0 85.431 0Z" fill="white"/>
<path d="M103.747 42.3242C101.366 42.3242 99.4685 41.8229 98.0541 40.8203C96.6397 39.8177 95.9325 38.0094 95.9325 35.3955C95.9325 34.9658 95.9594 34.5003 96.0131 33.999C96.0668 33.4798 96.1474 32.9427 96.2548 32.3877L99.3432 17.9126H95.2611L96.0399 13.9648L101.304 11.709L104.849 5.37109H110.058L108.743 11.7627H116.343L115 17.9126H107.427L104.338 32.3877C104.285 32.6562 104.24 32.9248 104.204 33.1934C104.186 33.444 104.177 33.6499 104.177 33.811C104.177 34.5272 104.392 35.0374 104.822 35.3418C105.251 35.6462 105.824 35.7983 106.54 35.7983C107.274 35.7983 107.973 35.7178 108.635 35.5566C109.315 35.3776 110.067 35.1449 110.891 34.8584V40.9009C110.032 41.3127 108.993 41.6528 107.776 41.9214C106.576 42.1899 105.233 42.3242 103.747 42.3242Z" fill="white"/>
<path d="M115.189 41.7871L121.554 11.7627H129.637L123.272 41.7871H115.189ZM126.898 8.02979C125.752 8.02979 124.785 7.77913 123.998 7.27783C123.228 6.77653 122.843 5.92611 122.843 4.72656C122.843 3.68815 123.031 2.81982 123.407 2.12158C123.801 1.42334 124.365 0.895182 125.099 0.537109C125.833 0.179036 126.71 0 127.73 0C128.805 0 129.736 0.232747 130.523 0.698242C131.329 1.16374 131.732 2.00521 131.732 3.22266C131.732 4.65495 131.338 5.81869 130.55 6.71387C129.763 7.59115 128.545 8.02979 126.898 8.02979Z" fill="white"/>
<path d="M130.417 41.7871L139.279 0H147.363L138.501 41.7871H130.417Z" fill="white"/>
<path d="M163.574 20.4121V10.1848H165.485V11.8494H165.611C165.824 11.2857 166.173 10.8462 166.657 10.5311C167.14 10.2115 167.72 10.0517 168.394 10.0517C169.078 10.0517 169.651 10.2115 170.112 10.5311C170.578 10.8507 170.922 11.2901 171.144 11.8494H171.251C171.495 11.3034 171.883 10.8684 172.416 10.5444C172.949 10.2159 173.583 10.0517 174.32 10.0517C175.248 10.0517 176.005 10.3424 176.591 10.9239C177.181 11.5054 177.476 12.3821 177.476 13.554V20.4121H175.486V13.7404C175.486 13.0479 175.297 12.5463 174.92 12.2356C174.542 11.9249 174.092 11.7695 173.568 11.7695C172.92 11.7695 172.416 11.9693 172.056 12.3688C171.697 12.7638 171.517 13.2721 171.517 13.8936V20.4121H169.533V13.6139C169.533 13.059 169.36 12.6129 169.014 12.2756C168.667 11.9382 168.217 11.7695 167.662 11.7695C167.285 11.7695 166.936 11.8694 166.617 12.0692C166.301 12.2645 166.046 12.5375 165.851 12.8881C165.66 13.2388 165.565 13.645 165.565 14.1066V20.4121H163.574Z" fill="white"/>
<path d="M182.371 20.6385C181.723 20.6385 181.137 20.5186 180.613 20.2789C180.089 20.0348 179.674 19.6819 179.368 19.2203C179.066 18.7586 178.915 18.1926 178.915 17.5224C178.915 16.9453 179.026 16.4703 179.248 16.0975C179.47 15.7246 179.77 15.4294 180.147 15.2119C180.524 14.9944 180.946 14.8302 181.412 14.7192C181.878 14.6082 182.353 14.5239 182.837 14.4662C183.45 14.3952 183.947 14.3374 184.329 14.2931C184.71 14.2442 184.988 14.1665 185.161 14.06C185.334 13.9535 185.421 13.7804 185.421 13.5407V13.4941C185.421 12.9126 185.256 12.462 184.928 12.1424C184.604 11.8228 184.12 11.663 183.476 11.663C182.806 11.663 182.278 11.8117 181.892 12.1091C181.51 12.4021 181.246 12.7283 181.099 13.0879L179.228 12.6618C179.45 12.0403 179.774 11.5387 180.2 11.157C180.631 10.7708 181.126 10.4911 181.685 10.318C182.245 10.1404 182.833 10.0517 183.45 10.0517C183.858 10.0517 184.291 10.1005 184.748 10.1982C185.21 10.2914 185.64 10.4645 186.04 10.7175C186.444 10.9705 186.774 11.3323 187.032 11.8028C187.289 12.2689 187.418 12.8748 187.418 13.6206V20.4121H185.474V19.0138H185.394C185.265 19.2713 185.072 19.5243 184.815 19.7729C184.557 20.0215 184.227 20.2279 183.823 20.3921C183.419 20.5564 182.935 20.6385 182.371 20.6385ZM182.804 19.0405C183.354 19.0405 183.825 18.9317 184.215 18.7142C184.61 18.4967 184.91 18.2126 185.114 17.8619C185.323 17.5068 185.427 17.1273 185.427 16.7234V15.405C185.356 15.476 185.219 15.5426 185.014 15.6048C184.815 15.6625 184.586 15.7135 184.329 15.7579C184.071 15.7979 183.82 15.8356 183.576 15.8711C183.332 15.9022 183.128 15.9288 182.964 15.951C182.577 15.9998 182.225 16.0819 181.905 16.1974C181.59 16.3128 181.337 16.4792 181.146 16.6967C180.959 16.9098 180.866 17.1939 180.866 17.549C180.866 18.0417 181.048 18.4146 181.412 18.6676C181.776 18.9162 182.24 19.0405 182.804 19.0405Z" fill="white"/>
<path d="M191.151 16.9431L191.138 14.5128H191.484L195.559 10.1848H197.942L193.295 15.112H192.982L191.151 16.9431ZM189.32 20.4121V6.77575H191.311V20.4121H189.32ZM195.778 20.4121L192.116 15.5515L193.488 14.1599L198.222 20.4121H195.778Z" fill="white"/>
<path d="M199.007 20.4121V10.1848H200.998V20.4121H199.007ZM200.012 8.6068C199.666 8.6068 199.369 8.49139 199.12 8.26056C198.876 8.0253 198.754 7.74565 198.754 7.42161C198.754 7.09313 198.876 6.81348 199.12 6.58265C199.369 6.34739 199.666 6.22976 200.012 6.22976C200.358 6.22976 200.654 6.34739 200.898 6.58265C201.146 6.81348 201.271 7.09313 201.271 7.42161C201.271 7.74565 201.146 8.0253 200.898 8.26056C200.654 8.49139 200.358 8.6068 200.012 8.6068Z" fill="white"/>
<path d="M204.917 14.3397V20.4121H202.926V10.1848H204.837V11.8494H204.963C205.199 11.3079 205.567 10.8729 206.069 10.5444C206.575 10.2159 207.212 10.0517 207.98 10.0517C208.677 10.0517 209.287 10.1982 209.811 10.4911C210.335 10.7797 210.741 11.2102 211.029 11.7828C211.318 12.3555 211.462 13.0635 211.462 13.9069V20.4121H209.471V14.1466C209.471 13.4053 209.278 12.826 208.892 12.4087C208.506 11.987 207.975 11.7762 207.301 11.7762C206.839 11.7762 206.428 11.8761 206.069 12.0758C205.714 12.2756 205.432 12.5685 205.223 12.9547C205.019 13.3365 204.917 13.7981 204.917 14.3397Z" fill="white"/>
<path d="M217.67 24.4604C216.858 24.4604 216.159 24.3539 215.573 24.1408C214.991 23.9277 214.516 23.6459 214.148 23.2952C213.779 22.9445 213.504 22.5605 213.322 22.1433L215.033 21.4375C215.153 21.6328 215.313 21.8392 215.513 22.0567C215.717 22.2787 215.992 22.4673 216.338 22.6227C216.689 22.7781 217.14 22.8557 217.69 22.8557C218.445 22.8557 219.068 22.6715 219.561 22.3031C220.054 21.9391 220.3 21.3576 220.3 20.5586V18.5478H220.174C220.054 18.7653 219.881 19.0072 219.654 19.2735C219.432 19.5399 219.126 19.7707 218.735 19.966C218.345 20.1613 217.836 20.259 217.211 20.259C216.403 20.259 215.675 20.0703 215.027 19.693C214.383 19.3113 213.873 18.7497 213.495 18.0084C213.122 17.2627 212.936 16.3461 212.936 15.2585C212.936 14.171 213.12 13.2388 213.489 12.462C213.861 11.6852 214.372 11.0904 215.02 10.6776C215.668 10.2603 216.403 10.0517 217.224 10.0517C217.859 10.0517 218.371 10.1582 218.762 10.3713C219.153 10.5799 219.457 10.824 219.674 11.1037C219.896 11.3833 220.067 11.6297 220.187 11.8428H220.333V10.1848H222.284V20.6385C222.284 21.5174 222.08 22.2387 221.672 22.8025C221.263 23.3662 220.711 23.7835 220.014 24.0542C219.321 24.325 218.54 24.4604 217.67 24.4604ZM217.65 18.6077C218.223 18.6077 218.707 18.4745 219.102 18.2082C219.501 17.9374 219.803 17.5512 220.007 17.0496C220.216 16.5436 220.32 15.9377 220.32 15.2319C220.32 14.5439 220.218 13.9379 220.014 13.4142C219.81 12.8904 219.51 12.482 219.115 12.189C218.72 11.8916 218.232 11.7429 217.65 11.7429C217.051 11.7429 216.551 11.8983 216.152 12.209C215.752 12.5153 215.451 12.9325 215.246 13.4608C215.047 13.989 214.947 14.5794 214.947 15.2319C214.947 15.9022 215.049 16.4903 215.253 16.9964C215.457 17.5024 215.759 17.8975 216.159 18.1816C216.563 18.4656 217.06 18.6077 217.65 18.6077Z" fill="white"/>
<path d="M230.407 6.77575V20.4121H228.416V6.77575H230.407Z" fill="white"/>
<path d="M235.312 20.6385C234.664 20.6385 234.078 20.5186 233.554 20.2789C233.03 20.0348 232.615 19.6819 232.309 19.2203C232.007 18.7586 231.856 18.1926 231.856 17.5224C231.856 16.9453 231.967 16.4703 232.189 16.0975C232.411 15.7246 232.711 15.4294 233.088 15.2119C233.465 14.9944 233.887 14.8302 234.353 14.7192C234.819 14.6082 235.294 14.5239 235.778 14.4662C236.391 14.3952 236.888 14.3374 237.27 14.2931C237.651 14.2442 237.929 14.1665 238.102 14.06C238.275 13.9535 238.361 13.7804 238.361 13.5407V13.4941C238.361 12.9126 238.197 12.462 237.869 12.1424C237.545 11.8228 237.061 11.663 236.417 11.663C235.747 11.663 235.219 11.8117 234.833 12.1091C234.451 12.4021 234.187 12.7283 234.04 13.0879L232.169 12.6618C232.391 12.0403 232.715 11.5387 233.141 11.157C233.572 10.7708 234.067 10.4911 234.626 10.318C235.185 10.1404 235.774 10.0517 236.391 10.0517C236.799 10.0517 237.232 10.1005 237.689 10.1982C238.151 10.2914 238.581 10.4645 238.981 10.7175C239.385 10.9705 239.715 11.3323 239.973 11.8028C240.23 12.2689 240.359 12.8748 240.359 13.6206V20.4121H238.415V19.0138H238.335C238.206 19.2713 238.013 19.5243 237.756 19.7729C237.498 20.0215 237.167 20.2279 236.763 20.3921C236.36 20.5564 235.876 20.6385 235.312 20.6385ZM235.745 19.0405C236.295 19.0405 236.766 18.9317 237.156 18.7142C237.551 18.4967 237.851 18.2126 238.055 17.8619C238.264 17.5068 238.368 17.1273 238.368 16.7234V15.405C238.297 15.476 238.16 15.5426 237.955 15.6048C237.756 15.6625 237.527 15.7135 237.27 15.7579C237.012 15.7979 236.761 15.8356 236.517 15.8711C236.273 15.9022 236.069 15.9288 235.905 15.951C235.518 15.9998 235.165 16.0819 234.846 16.1974C234.531 16.3128 234.278 16.4792 234.087 16.6967C233.9 16.9098 233.807 17.1939 233.807 17.549C233.807 18.0417 233.989 18.4146 234.353 18.6676C234.717 18.9162 235.181 19.0405 235.745 19.0405Z" fill="white"/>
<path d="M244.252 14.3397V20.4121H242.261V10.1848H244.172V11.8494H244.298C244.533 11.3079 244.902 10.8729 245.403 10.5444C245.91 10.2159 246.546 10.0517 247.314 10.0517C248.011 10.0517 248.622 10.1982 249.145 10.4911C249.669 10.7797 250.075 11.2102 250.364 11.7828C250.652 12.3555 250.797 13.0635 250.797 13.9069V20.4121H248.806V14.1466C248.806 13.4053 248.613 12.826 248.227 12.4087C247.84 11.987 247.31 11.7762 246.635 11.7762C246.174 11.7762 245.763 11.8761 245.403 12.0758C245.048 12.2756 244.766 12.5685 244.558 12.9547C244.354 13.3365 244.252 13.7981 244.252 14.3397Z" fill="white"/>
<path d="M257.005 24.4604C256.192 24.4604 255.493 24.3539 254.907 24.1408C254.326 23.9277 253.851 23.6459 253.482 23.2952C253.114 22.9445 252.839 22.5605 252.657 22.1433L254.368 21.4375C254.488 21.6328 254.648 21.8392 254.847 22.0567C255.052 22.2787 255.327 22.4673 255.673 22.6227C256.024 22.7781 256.474 22.8557 257.025 22.8557C257.779 22.8557 258.403 22.6715 258.896 22.3031C259.388 21.9391 259.635 21.3576 259.635 20.5586V18.5478H259.508C259.388 18.7653 259.215 19.0072 258.989 19.2735C258.767 19.5399 258.461 19.7707 258.07 19.966C257.679 20.1613 257.171 20.259 256.545 20.259C255.737 20.259 255.009 20.0703 254.361 19.693C253.718 19.3113 253.207 18.7497 252.83 18.0084C252.457 17.2627 252.271 16.3461 252.271 15.2585C252.271 14.171 252.455 13.2388 252.823 12.462C253.196 11.6852 253.707 11.0904 254.355 10.6776C255.003 10.2603 255.737 10.0517 256.559 10.0517C257.193 10.0517 257.706 10.1582 258.097 10.3713C258.487 10.5799 258.791 10.824 259.009 11.1037C259.231 11.3833 259.402 11.6297 259.522 11.8428H259.668V10.1848H261.619V20.6385C261.619 21.5174 261.415 22.2387 261.006 22.8025C260.598 23.3662 260.045 23.7835 259.349 24.0542C258.656 24.325 257.875 24.4604 257.005 24.4604ZM256.985 18.6077C257.557 18.6077 258.041 18.4745 258.436 18.2082C258.836 17.9374 259.138 17.5512 259.342 17.0496C259.55 16.5436 259.655 15.9377 259.655 15.2319C259.655 14.5439 259.553 13.9379 259.349 13.4142C259.144 12.8904 258.845 12.482 258.45 12.189C258.055 11.8916 257.566 11.7429 256.985 11.7429C256.386 11.7429 255.886 11.8983 255.487 12.209C255.087 12.5153 254.785 12.9325 254.581 13.4608C254.381 13.989 254.281 14.5794 254.281 15.2319C254.281 15.9022 254.384 16.4903 254.588 16.9964C254.792 17.5024 255.094 17.8975 255.493 18.1816C255.897 18.4656 256.394 18.6077 256.985 18.6077Z" fill="white"/>
<path d="M270.018 16.1707V10.1848H272.015V20.4121H270.058V18.641H269.951C269.716 19.187 269.338 19.642 268.819 20.0059C268.304 20.3655 267.663 20.5453 266.895 20.5453C266.238 20.5453 265.656 20.401 265.15 20.1125C264.649 19.8195 264.254 19.3867 263.965 18.8141C263.681 18.2415 263.539 17.5335 263.539 16.6901V10.1848H265.53V16.4504C265.53 17.1473 265.723 17.7021 266.109 18.115C266.495 18.5278 266.997 18.7342 267.614 18.7342C267.987 18.7342 268.357 18.641 268.726 18.4545C269.099 18.2681 269.407 17.9862 269.651 17.6089C269.9 17.2316 270.022 16.7522 270.018 16.1707Z" fill="white"/>
<path d="M276.916 20.6385C276.268 20.6385 275.682 20.5186 275.159 20.2789C274.635 20.0348 274.22 19.6819 273.914 19.2203C273.612 18.7586 273.461 18.1926 273.461 17.5224C273.461 16.9453 273.572 16.4703 273.794 16.0975C274.016 15.7246 274.315 15.4294 274.693 15.2119C275.07 14.9944 275.492 14.8302 275.958 14.7192C276.424 14.6082 276.899 14.5239 277.383 14.4662C277.995 14.3952 278.492 14.3374 278.874 14.2931C279.256 14.2442 279.533 14.1665 279.706 14.06C279.879 13.9535 279.966 13.7804 279.966 13.5407V13.4941C279.966 12.9126 279.802 12.462 279.473 12.1424C279.149 11.8228 278.665 11.663 278.022 11.663C277.351 11.663 276.823 11.8117 276.437 12.1091C276.055 12.4021 275.791 12.7283 275.645 13.0879L273.774 12.6618C273.996 12.0403 274.32 11.5387 274.746 11.157C275.176 10.7708 275.671 10.4911 276.231 10.318C276.79 10.1404 277.378 10.0517 277.995 10.0517C278.403 10.0517 278.836 10.1005 279.293 10.1982C279.755 10.2914 280.186 10.4645 280.585 10.7175C280.989 10.9705 281.32 11.3323 281.577 11.8028C281.835 12.2689 281.964 12.8748 281.964 13.6206V20.4121H280.019V19.0138H279.939C279.811 19.2713 279.618 19.5243 279.36 19.7729C279.103 20.0215 278.772 20.2279 278.368 20.3921C277.964 20.5564 277.48 20.6385 276.916 20.6385ZM277.349 19.0405C277.9 19.0405 278.37 18.9317 278.761 18.7142C279.156 18.4967 279.456 18.2126 279.66 17.8619C279.868 17.5068 279.973 17.1273 279.973 16.7234V15.405C279.902 15.476 279.764 15.5426 279.56 15.6048C279.36 15.6625 279.131 15.7135 278.874 15.7579C278.617 15.7979 278.366 15.8356 278.122 15.8711C277.877 15.9022 277.673 15.9288 277.509 15.951C277.123 15.9998 276.77 16.0819 276.45 16.1974C276.135 16.3128 275.882 16.4792 275.691 16.6967C275.505 16.9098 275.412 17.1939 275.412 17.549C275.412 18.0417 275.594 18.4146 275.958 18.6676C276.322 18.9162 276.785 19.0405 277.349 19.0405Z" fill="white"/>
<path d="M288.153 24.4604C287.341 24.4604 286.642 24.3539 286.056 24.1408C285.474 23.9277 284.999 23.6459 284.631 23.2952C284.262 22.9445 283.987 22.5605 283.805 22.1433L285.516 21.4375C285.636 21.6328 285.796 21.8392 285.996 22.0567C286.2 22.2787 286.475 22.4673 286.822 22.6227C287.172 22.7781 287.623 22.8557 288.173 22.8557C288.928 22.8557 289.551 22.6715 290.044 22.3031C290.537 21.9391 290.783 21.3576 290.783 20.5586V18.5478H290.657C290.537 18.7653 290.364 19.0072 290.137 19.2735C289.915 19.5399 289.609 19.7707 289.219 19.966C288.828 20.1613 288.32 20.259 287.694 20.259C286.886 20.259 286.158 20.0703 285.51 19.693C284.866 19.3113 284.356 18.7497 283.978 18.0084C283.606 17.2627 283.419 16.3461 283.419 15.2585C283.419 14.171 283.603 13.2388 283.972 12.462C284.345 11.6852 284.855 11.0904 285.503 10.6776C286.151 10.2603 286.886 10.0517 287.707 10.0517C288.342 10.0517 288.855 10.1582 289.245 10.3713C289.636 10.5799 289.94 10.824 290.157 11.1037C290.379 11.3833 290.55 11.6297 290.67 11.8428H290.817V10.1848H292.767V20.6385C292.767 21.5174 292.563 22.2387 292.155 22.8025C291.746 23.3662 291.194 23.7835 290.497 24.0542C289.804 24.325 289.023 24.4604 288.153 24.4604ZM288.133 18.6077C288.706 18.6077 289.19 18.4745 289.585 18.2082C289.984 17.9374 290.286 17.5512 290.49 17.0496C290.699 16.5436 290.803 15.9377 290.803 15.2319C290.803 14.5439 290.701 13.9379 290.497 13.4142C290.293 12.8904 289.993 12.482 289.598 12.189C289.203 11.8916 288.715 11.7429 288.133 11.7429C287.534 11.7429 287.035 11.8983 286.635 12.209C286.236 12.5153 285.934 12.9325 285.73 13.4608C285.53 13.989 285.43 14.5794 285.43 15.2319C285.43 15.9022 285.532 16.4903 285.736 16.9964C285.94 17.5024 286.242 17.8975 286.642 18.1816C287.046 18.4656 287.543 18.6077 288.133 18.6077Z" fill="white"/>
<path d="M299.095 20.6185C298.088 20.6185 297.22 20.4032 296.492 19.9727C295.768 19.5376 295.209 18.9273 294.814 18.1416C294.423 17.3515 294.228 16.426 294.228 15.3651C294.228 14.3175 294.423 13.3942 294.814 12.5952C295.209 11.7962 295.759 11.1725 296.465 10.7242C297.175 10.2758 298.006 10.0517 298.955 10.0517C299.533 10.0517 300.092 10.1471 300.633 10.338C301.175 10.5289 301.661 10.8285 302.092 11.2369C302.522 11.6452 302.862 12.1757 303.11 12.8282C303.359 13.4763 303.483 14.2642 303.483 15.1919V15.8977H295.353V14.4062H301.532C301.532 13.8825 301.426 13.4186 301.213 13.0146C301 12.6063 300.7 12.2844 300.314 12.0492C299.932 11.8139 299.484 11.6963 298.969 11.6963C298.409 11.6963 297.921 11.8339 297.504 12.1091C297.091 12.3799 296.772 12.735 296.545 13.1744C296.323 13.6095 296.212 14.0822 296.212 14.5927V15.7579C296.212 16.4415 296.332 17.023 296.572 17.5024C296.816 17.9818 297.155 18.348 297.591 18.601C298.026 18.8496 298.534 18.9739 299.115 18.9739C299.493 18.9739 299.837 18.9206 300.147 18.8141C300.458 18.7031 300.727 18.5389 300.953 18.3214C301.179 18.1039 301.353 17.8353 301.472 17.5157L303.357 17.8553C303.206 18.4102 302.935 18.8962 302.544 19.3135C302.158 19.7263 301.672 20.0481 301.086 20.2789C300.505 20.5053 299.841 20.6185 299.095 20.6185Z" fill="white"/>
<path d="M312.606 12.6817L310.801 13.0013C310.726 12.7705 310.606 12.5508 310.442 12.3422C310.282 12.1335 310.065 11.9626 309.789 11.8295C309.514 11.6963 309.17 11.6297 308.757 11.6297C308.194 11.6297 307.723 11.7562 307.346 12.0092C306.968 12.2578 306.78 12.5796 306.78 12.9747C306.78 13.3165 306.906 13.5917 307.159 13.8003C307.412 14.009 307.821 14.1799 308.384 14.313L310.009 14.6859C310.95 14.9034 311.652 15.2385 312.113 15.6913C312.575 16.1441 312.806 16.7322 312.806 17.4558C312.806 18.0684 312.628 18.6143 312.273 19.0938C311.922 19.5687 311.432 19.9416 310.801 20.2124C310.176 20.4831 309.45 20.6185 308.624 20.6185C307.479 20.6185 306.545 20.3744 305.821 19.8861C305.097 19.3934 304.654 18.6942 304.489 17.7887L306.414 17.4957C306.533 17.9973 306.78 18.3769 307.153 18.6343C307.526 18.8873 308.012 19.0138 308.611 19.0138C309.263 19.0138 309.785 18.8785 310.176 18.6077C310.566 18.3325 310.762 17.9973 310.762 17.6023C310.762 17.2827 310.642 17.0141 310.402 16.7966C310.167 16.5791 309.805 16.4149 309.317 16.3039L307.585 15.9244C306.631 15.7069 305.925 15.3606 305.468 14.8857C305.015 14.4107 304.789 13.8092 304.789 13.0812C304.789 12.4775 304.958 11.9493 305.295 11.4965C305.632 11.0438 306.098 10.6909 306.693 10.4379C307.288 10.1804 307.969 10.0517 308.737 10.0517C309.843 10.0517 310.713 10.2914 311.347 10.7708C311.982 11.2457 312.402 11.8827 312.606 12.6817Z" fill="white"/>
<path d="M163.574 41.4121V31.1848H165.565V41.4121H163.574ZM164.579 29.6068C164.233 29.6068 163.935 29.4914 163.687 29.2606C163.443 29.0253 163.321 28.7456 163.321 28.4216C163.321 28.0931 163.443 27.8135 163.687 27.5827C163.935 27.3474 164.233 27.2298 164.579 27.2298C164.925 27.2298 165.221 27.3474 165.465 27.5827C165.713 27.8135 165.838 28.0931 165.838 28.4216C165.838 28.7456 165.713 29.0253 165.465 29.2606C165.221 29.4914 164.925 29.6068 164.579 29.6068Z" fill="white"/>
<path d="M169.484 35.3397V41.4121H167.493V31.1848H169.404V32.8494H169.53C169.766 32.3079 170.134 31.8729 170.636 31.5444C171.142 31.2159 171.779 31.0517 172.547 31.0517C173.243 31.0517 173.854 31.1982 174.378 31.4911C174.901 31.7797 175.308 32.2102 175.596 32.7828C175.885 33.3555 176.029 34.0635 176.029 34.9069V41.4121H174.038V35.1466C174.038 34.4053 173.845 33.826 173.459 33.4087C173.073 32.987 172.542 32.7762 171.867 32.7762C171.406 32.7762 170.995 32.8761 170.636 33.0758C170.281 33.2756 169.999 33.5685 169.79 33.9547C169.586 34.3365 169.484 34.7981 169.484 35.3397Z" fill="white"/>
<path d="M182.257 41.6185C181.267 41.6185 180.415 41.3944 179.7 40.946C178.99 40.4933 178.444 39.8696 178.062 39.075C177.68 38.2804 177.49 37.3705 177.49 36.3451C177.49 35.3064 177.685 34.3897 178.075 33.5952C178.466 32.7962 179.016 32.1725 179.727 31.7242C180.437 31.2758 181.274 31.0517 182.237 31.0517C183.014 31.0517 183.706 31.1959 184.314 31.4845C184.922 31.7686 185.413 32.1681 185.786 32.683C186.163 33.1979 186.387 33.7994 186.458 34.4874H184.521C184.414 34.008 184.17 33.5952 183.788 33.2489C183.411 32.9027 182.905 32.7296 182.27 32.7296C181.715 32.7296 181.229 32.8761 180.812 33.169C180.399 33.4576 180.077 33.8704 179.847 34.4075C179.616 34.9402 179.5 35.5705 179.5 36.2985C179.5 37.0442 179.614 37.6879 179.84 38.2294C180.066 38.771 180.386 39.1904 180.799 39.4878C181.216 39.7852 181.706 39.9339 182.27 39.9339C182.648 39.9339 182.989 39.8651 183.296 39.7275C183.606 39.5855 183.866 39.3835 184.075 39.1216C184.288 38.8597 184.436 38.5446 184.521 38.1761H186.458C186.387 38.8375 186.172 39.4279 185.812 39.9473C185.453 40.4666 184.971 40.875 184.368 41.1724C183.768 41.4698 183.065 41.6185 182.257 41.6185Z" fill="white"/>
<path d="M189.828 27.7757V41.4121H187.837V27.7757H189.828Z" fill="white"/>
<path d="M198.235 37.1707V31.1848H200.233V41.4121H198.275V39.641H198.169C197.933 40.187 197.556 40.642 197.037 41.0059C196.522 41.3655 195.88 41.5453 195.112 41.5453C194.455 41.5453 193.874 41.401 193.368 41.1125C192.866 40.8195 192.471 40.3867 192.183 39.8141C191.899 39.2415 191.757 38.5335 191.757 37.6901V31.1848H193.747V37.4504C193.747 38.1473 193.94 38.7021 194.327 39.115C194.713 39.5278 195.214 39.7342 195.831 39.7342C196.204 39.7342 196.575 39.641 196.943 39.4545C197.316 39.2681 197.625 38.9862 197.869 38.6089C198.118 38.2316 198.24 37.7522 198.235 37.1707Z" fill="white"/>
<path d="M209.821 33.6817L208.017 34.0013C207.942 33.7705 207.822 33.5508 207.657 33.3422C207.498 33.1335 207.28 32.9626 207.005 32.8295C206.73 32.6963 206.386 32.6297 205.973 32.6297C205.409 32.6297 204.939 32.7562 204.561 33.0092C204.184 33.2578 203.995 33.5796 203.995 33.9747C203.995 34.3165 204.122 34.5917 204.375 34.8003C204.628 35.009 205.036 35.1799 205.6 35.313L207.225 35.6859C208.166 35.9034 208.867 36.2385 209.329 36.6913C209.79 37.1441 210.021 37.7322 210.021 38.4558C210.021 39.0684 209.844 39.6143 209.489 40.0938C209.138 40.5687 208.647 40.9416 208.017 41.2124C207.391 41.4831 206.665 41.6185 205.84 41.6185C204.695 41.6185 203.76 41.3744 203.037 40.8861C202.313 40.3934 201.869 39.6942 201.705 38.7887L203.629 38.4957C203.749 38.9973 203.995 39.3769 204.368 39.6343C204.741 39.8873 205.227 40.0139 205.826 40.0139C206.479 40.0139 207.001 39.8785 207.391 39.6077C207.782 39.3325 207.977 38.9973 207.977 38.6023C207.977 38.2827 207.857 38.0141 207.618 37.7966C207.382 37.5791 207.021 37.4149 206.532 37.3039L204.801 36.9244C203.847 36.7069 203.141 36.3606 202.684 35.8857C202.231 35.4107 202.005 34.8092 202.005 34.0812C202.005 33.4775 202.173 32.9493 202.511 32.4965C202.848 32.0438 203.314 31.6909 203.909 31.4379C204.504 31.1804 205.185 31.0517 205.953 31.0517C207.058 31.0517 207.928 31.2914 208.563 31.7708C209.198 32.2457 209.617 32.8827 209.821 33.6817Z" fill="white"/>
<path d="M211.46 41.4121V31.1848H213.451V41.4121H211.46ZM212.466 29.6068C212.119 29.6068 211.822 29.4914 211.573 29.2606C211.329 29.0253 211.207 28.7456 211.207 28.4216C211.207 28.0931 211.329 27.8135 211.573 27.5827C211.822 27.3474 212.119 27.2298 212.466 27.2298C212.812 27.2298 213.107 27.3474 213.351 27.5827C213.6 27.8135 213.724 28.0931 213.724 28.4216C213.724 28.7456 213.6 29.0253 213.351 29.2606C213.107 29.4914 212.812 29.6068 212.466 29.6068Z" fill="white"/>
<path d="M224.128 31.1848L220.42 41.4121H218.289L214.574 31.1848H216.711L219.301 39.055H219.408L221.991 31.1848H224.128Z" fill="white"/>
<path d="M229.309 41.6185C228.302 41.6185 227.434 41.4032 226.706 40.9727C225.982 40.5376 225.423 39.9273 225.028 39.1416C224.637 38.3515 224.442 37.426 224.442 36.3651C224.442 35.3175 224.637 34.3942 225.028 33.5952C225.423 32.7962 225.974 32.1725 226.679 31.7242C227.39 31.2758 228.22 31.0517 229.17 31.0517C229.747 31.0517 230.306 31.1471 230.848 31.338C231.389 31.5289 231.875 31.8285 232.306 32.2369C232.736 32.6452 233.076 33.1757 233.324 33.8282C233.573 34.4763 233.697 35.2642 233.697 36.1919V36.8977H225.567V35.4062H231.746C231.746 34.8825 231.64 34.4186 231.427 34.0146C231.214 33.6063 230.914 33.2844 230.528 33.0492C230.146 32.8139 229.698 32.6963 229.183 32.6963C228.624 32.6963 228.135 32.8339 227.718 33.1091C227.305 33.3799 226.986 33.735 226.759 34.1744C226.537 34.6095 226.426 35.0822 226.426 35.5927V36.7579C226.426 37.4415 226.546 38.023 226.786 38.5024C227.03 38.9818 227.37 39.348 227.805 39.601C228.24 39.8496 228.748 39.9739 229.329 39.9739C229.707 39.9739 230.051 39.9206 230.361 39.8141C230.672 39.7031 230.941 39.5389 231.167 39.3214C231.393 39.1039 231.567 38.8353 231.686 38.5157L233.571 38.8553C233.42 39.4102 233.149 39.8962 232.758 40.3135C232.372 40.7263 231.886 41.0481 231.3 41.2789C230.719 41.5053 230.055 41.6185 229.309 41.6185Z" fill="white"/>
<path d="M245.7 37.1707L246.699 31.1848H248.697L246.992 41.4121H245.035L245.334 39.641H245.228C244.908 40.187 244.455 40.642 243.869 41.0059C243.288 41.3655 242.613 41.5453 241.845 41.5453C241.188 41.5453 240.631 41.401 240.174 41.1125C239.721 40.8195 239.399 40.3867 239.209 39.8141C239.018 39.2415 238.991 38.5335 239.129 37.6901L240.221 31.1848H242.211L241.166 37.4504C241.055 38.1473 241.159 38.7021 241.479 39.115C241.799 39.5278 242.265 39.7342 242.877 39.7342C243.25 39.7342 243.636 39.641 244.036 39.4545C244.435 39.2681 244.788 38.9862 245.095 38.6089C245.405 38.2316 245.607 37.7522 245.7 37.1707Z" fill="white"/>
<path d="M248.711 41.4121L248.944 40.0471L255.636 33.0092L255.662 32.916H250.309L250.595 31.1848H258.439L258.199 32.6364L251.72 39.5877L251.694 39.6809H257.207L256.921 41.4121H248.711Z" fill="white"/>
<path d="M258.672 41.4121L260.936 27.7757H262.927L262.095 32.8428H262.215C262.366 32.6297 262.572 32.3833 262.834 32.1037C263.1 31.824 263.444 31.5799 263.866 31.3713C264.288 31.1582 264.816 31.0517 265.451 31.0517C266.276 31.0517 266.978 31.2603 267.555 31.6776C268.132 32.0948 268.54 32.6963 268.78 33.482C269.02 34.2677 269.048 35.2132 268.866 36.3184C268.684 37.4237 268.343 38.3714 267.841 39.1616C267.344 39.9473 266.738 40.5532 266.023 40.9793C265.309 41.401 264.539 41.6119 263.713 41.6119C263.091 41.6119 262.601 41.5075 262.241 41.2989C261.886 41.0903 261.62 40.8461 261.442 40.5665C261.269 40.2868 261.138 40.0383 261.05 39.8208H260.883L260.617 41.4121H258.672ZM261.476 36.2985C261.36 37.0176 261.36 37.6479 261.476 38.1895C261.595 38.731 261.829 39.1549 262.175 39.4612C262.525 39.7631 262.985 39.914 263.553 39.914C264.148 39.914 264.672 39.7564 265.124 39.4412C265.577 39.1216 265.95 38.6888 266.243 38.1428C266.536 37.5969 266.74 36.9821 266.856 36.2985C266.962 35.6238 266.96 35.0178 266.849 34.4807C266.738 33.9436 266.507 33.5197 266.156 33.209C265.81 32.8983 265.337 32.7429 264.738 32.7429C264.161 32.7429 263.648 32.8916 263.2 33.189C262.752 33.4864 262.381 33.9015 262.088 34.4341C261.795 34.9668 261.591 35.5882 261.476 36.2985Z" fill="white"/>
<path d="M273.881 41.6185C272.878 41.6185 272.048 41.4032 271.391 40.9727C270.738 40.5376 270.281 39.9273 270.019 39.1416C269.757 38.3515 269.715 37.426 269.893 36.3651C270.066 35.3175 270.414 34.3942 270.938 33.5952C271.462 32.7962 272.114 32.1725 272.896 31.7242C273.681 31.2758 274.549 31.0517 275.499 31.0517C276.076 31.0517 276.62 31.1471 277.13 31.338C277.645 31.5289 278.082 31.8285 278.442 32.2369C278.801 32.6452 279.05 33.1757 279.188 33.8282C279.33 34.4763 279.325 35.2642 279.174 36.1919L279.061 36.8977H270.925L271.158 35.4062H277.337C277.43 34.8825 277.405 34.4186 277.263 34.0146C277.121 33.6063 276.877 33.2844 276.531 33.0492C276.189 32.8139 275.759 32.6963 275.239 32.6963C274.707 32.6963 274.209 32.8361 273.748 33.1158C273.286 33.3954 272.9 33.7528 272.589 34.1878C272.283 34.6183 272.09 35.0622 272.01 35.5194L271.777 36.8844C271.661 37.6301 271.681 38.2294 271.837 38.6822C271.997 39.1349 272.276 39.4634 272.676 39.6676C273.075 39.8718 273.575 39.9739 274.174 39.9739C274.56 39.9739 274.917 39.9206 275.246 39.8141C275.579 39.7031 275.874 39.5411 276.131 39.328C276.389 39.1105 276.604 38.8398 276.777 38.5157L278.602 38.8553C278.358 39.4102 278.007 39.8962 277.55 40.3135C277.092 40.7263 276.553 41.0481 275.932 41.2789C275.315 41.5053 274.631 41.6185 273.881 41.6185Z" fill="white"/>
<path d="M282.195 37.9431L282.574 35.5128H282.927L287.734 31.1848H290.118L284.658 36.112H284.345L282.195 37.9431ZM279.791 41.4121L282.055 27.7757H284.046L281.782 41.4121H279.791ZM286.25 41.4121L283.4 36.5515L284.991 35.1599L288.693 41.4121H286.25Z" fill="white"/>
<path d="M300.262 31.1848L300.002 32.7828H294.223L294.483 31.1848H300.262ZM294.363 41.4121L296.267 29.9996C296.365 29.3604 296.589 28.83 296.939 28.4083C297.29 27.9822 297.714 27.6648 298.211 27.4561C298.708 27.2431 299.228 27.1365 299.769 27.1365C300.169 27.1365 300.504 27.1698 300.775 27.2364C301.05 27.2986 301.25 27.3563 301.374 27.4095L300.648 29.0209C300.559 28.9942 300.446 28.9632 300.309 28.9276C300.171 28.8877 299.998 28.8677 299.789 28.8677C299.305 28.8677 298.939 28.9876 298.691 29.2273C298.446 29.467 298.282 29.8132 298.198 30.266L296.354 41.4121H294.363Z" fill="white"/>
<path d="M299.862 41.4121L301.566 31.1848H303.557L301.852 41.4121H299.862ZM302.978 29.5868C302.631 29.5868 302.338 29.4714 302.099 29.2406C301.863 29.0053 301.755 28.7257 301.772 28.4016C301.79 28.0732 301.928 27.7935 302.185 27.5627C302.443 27.3274 302.742 27.2098 303.084 27.2098C303.43 27.2098 303.721 27.3274 303.956 27.5627C304.192 27.7935 304.303 28.0732 304.289 28.4016C304.272 28.7257 304.134 29.0053 303.877 29.2406C303.624 29.4714 303.324 29.5868 302.978 29.5868Z" fill="white"/>
<path d="M303.781 41.4121L305.485 31.1848H307.41L307.137 32.8095H307.243C307.518 32.2591 307.92 31.8263 308.448 31.5111C308.977 31.1915 309.54 31.0317 310.139 31.0317C310.268 31.0317 310.415 31.0361 310.579 31.045C310.743 31.0494 310.876 31.0605 310.978 31.0783L310.659 32.9826C310.583 32.9604 310.446 32.936 310.246 32.9094C310.046 32.8783 309.84 32.8627 309.627 32.8627C309.161 32.8627 308.728 32.9626 308.328 33.1624C307.929 33.3577 307.594 33.6307 307.323 33.9814C307.052 34.3276 306.877 34.7227 306.797 35.1665L305.772 41.4121H303.781Z" fill="white"/>
<path d="M319.219 33.6817L317.361 34.0013C317.321 33.7661 317.239 33.5441 317.115 33.3355C316.995 33.1269 316.811 32.9582 316.562 32.8295C316.314 32.6963 315.983 32.6297 315.57 32.6297C314.997 32.6297 314.496 32.7607 314.065 33.0225C313.639 33.2844 313.395 33.6174 313.333 34.0213C313.275 34.3498 313.353 34.6161 313.566 34.8203C313.779 35.0201 314.154 35.1865 314.691 35.3197L316.263 35.6926C317.168 35.9101 317.816 36.2496 318.207 36.7113C318.602 37.1685 318.74 37.7633 318.62 38.4957C318.518 39.1039 318.251 39.6432 317.821 40.1137C317.395 40.5842 316.849 40.9527 316.183 41.219C315.517 41.4854 314.776 41.6185 313.959 41.6185C312.796 41.6185 311.89 41.3722 311.242 40.8794C310.594 40.3867 310.261 39.6898 310.243 38.7887L312.214 38.4957C312.25 38.9973 312.43 39.3769 312.754 39.6343C313.082 39.8873 313.537 40.0139 314.119 40.0139C314.784 40.0183 315.342 39.8785 315.79 39.5944C316.238 39.3103 316.493 38.9663 316.556 38.5623C316.609 38.2472 316.538 37.9853 316.342 37.7766C316.152 37.568 315.814 37.4082 315.33 37.2972L313.679 36.9177C312.756 36.7002 312.103 36.3495 311.722 35.8657C311.34 35.3818 311.211 34.7737 311.335 34.0413C311.433 33.442 311.686 32.9205 312.094 32.4766C312.507 32.0282 313.029 31.6798 313.659 31.4312C314.29 31.1782 314.986 31.0517 315.75 31.0517C316.864 31.0517 317.701 31.2914 318.26 31.7708C318.819 32.2457 319.139 32.8827 319.219 33.6817Z" fill="white"/>
<path d="M326.044 31.1848L325.785 32.7828H320.198L320.458 31.1848H326.044ZM322.356 28.7346H324.347L322.735 38.4092C322.673 38.7954 322.684 39.0861 322.769 39.2814C322.853 39.4723 322.982 39.6032 323.155 39.6743C323.332 39.7409 323.53 39.7741 323.747 39.7741C323.907 39.7741 324.047 39.7631 324.167 39.7409C324.287 39.7187 324.382 39.7009 324.453 39.6876L324.56 41.3322C324.427 41.3766 324.247 41.421 324.02 41.4654C323.798 41.5142 323.528 41.5408 323.208 41.5453C322.684 41.5542 322.211 41.4609 321.79 41.2656C321.368 41.0659 321.053 40.764 320.844 40.3601C320.636 39.9517 320.585 39.439 320.691 38.822L322.356 28.7346Z" fill="white"/>
</svg>
