<svg width="327" height="55" viewBox="0 0 327 55" fill="none" xmlns="http://www.w3.org/2000/svg">
<path d="M11.7266 42.3242C8.37858 42.3242 5.64827 41.0173 3.53564 38.4033C1.44092 35.7715 0.393555 31.9132 0.393555 26.8286C0.393555 21.6903 1.45882 17.8052 3.58936 15.1733C5.71989 12.5236 8.50391 11.1987 11.9414 11.1987C13.3737 11.1987 14.6359 11.3957 15.728 11.7896C16.8202 12.1834 17.7601 12.7116 18.5479 13.374C19.3535 14.0365 20.0339 14.7795 20.5889 15.603H20.8574C20.75 15.0301 20.6157 14.1886 20.4546 13.0786C20.3114 11.9507 20.2397 10.7959 20.2397 9.61426V0H28.4575V41.7871H22.1733L20.5889 37.8931H20.2397C19.7205 38.7166 19.0671 39.4686 18.2793 40.1489C17.5094 40.8114 16.5874 41.3395 15.5132 41.7334C14.439 42.1273 13.1768 42.3242 11.7266 42.3242ZM14.6001 35.7983C16.8381 35.7983 18.4136 35.1359 19.3267 33.811C20.2577 32.4683 20.75 30.4541 20.8037 27.7686V26.8823C20.8037 23.964 20.3561 21.735 19.4609 20.1953C18.5658 18.6377 16.9007 17.8589 14.4658 17.8589C12.6576 17.8589 11.2432 18.6377 10.2227 20.1953C9.20215 21.7529 8.69189 23.9998 8.69189 26.936C8.69189 29.8722 9.20215 32.0833 10.2227 33.5693C11.2611 35.0553 12.7202 35.7983 14.6001 35.7983Z" fill="#281E11"/>
<path d="M44.1153 11.7627V41.7871H35.9244V11.7627H44.1153ZM40.0333 0C41.2508 0 42.2981 0.286458 43.1754 0.859375C44.0527 1.41439 44.4913 2.46175 44.4913 4.00146C44.4913 5.52327 44.0527 6.57959 43.1754 7.17041C42.2981 7.74333 41.2508 8.02979 40.0333 8.02979C38.798 8.02979 37.7416 7.74333 36.8644 7.17041C36.005 6.57959 35.5753 5.52327 35.5753 4.00146C35.5753 2.46175 36.005 1.41439 36.8644 0.859375C37.7416 0.286458 38.798 0 40.0333 0Z" fill="#281E11"/>
<path d="M60.4177 55C56.2282 55 53.0235 54.2659 50.8034 52.7979C48.6013 51.3477 47.5002 49.3066 47.5002 46.6748C47.5002 44.8665 48.0642 43.3537 49.1921 42.1362C50.32 40.9188 51.9761 40.0505 54.1604 39.5312C53.3189 39.1732 52.5848 38.5913 51.9582 37.7856C51.3316 36.9621 51.0183 36.0938 51.0183 35.1807C51.0183 34.0348 51.3495 33.0859 52.0119 32.334C52.6743 31.5641 53.6322 30.8122 54.8854 30.0781C53.3099 29.3978 52.0567 28.3057 51.1257 26.8018C50.2126 25.2979 49.7561 23.5254 49.7561 21.4844C49.7561 19.3001 50.2305 17.4471 51.1794 15.9253C52.1462 14.3856 53.5427 13.2129 55.3688 12.4072C57.2129 11.6016 59.4509 11.1987 62.0827 11.1987C62.6377 11.1987 63.2823 11.2345 64.0163 11.3062C64.7504 11.3778 65.4217 11.4583 66.0305 11.5479C66.6571 11.6374 67.0778 11.709 67.2927 11.7627H77.7663V15.9253L73.0666 17.1338C73.4963 17.7962 73.8186 18.5034 74.0334 19.2554C74.2482 20.0073 74.3557 20.804 74.3557 21.6455C74.3557 24.8682 73.2277 27.3836 70.9719 29.1919C68.7339 30.9823 65.6187 31.8774 61.6262 31.8774C60.6773 31.8237 59.7821 31.7521 58.9406 31.6626C58.5288 31.9849 58.2155 32.325 58.0007 32.6831C57.7858 33.0412 57.6784 33.4172 57.6784 33.811C57.6784 34.2049 57.8396 34.5361 58.1618 34.8047C58.502 35.0553 59.0033 35.2523 59.6657 35.3955C60.3461 35.5208 61.1875 35.5835 62.1901 35.5835H67.2927C70.587 35.5835 73.0935 36.2907 74.8122 37.7051C76.5489 39.1195 77.4172 41.1963 77.4172 43.9355C77.4172 47.4447 75.9491 50.166 73.0129 52.0996C70.0946 54.0332 65.8962 55 60.4177 55ZM60.7668 49.6558C62.7183 49.6558 64.3923 49.4678 65.7888 49.0918C67.2032 48.7337 68.2863 48.2145 69.0383 47.5342C69.7902 46.8717 70.1662 46.075 70.1662 45.144C70.1662 44.3921 69.9424 43.7923 69.4948 43.3447C69.0651 42.915 68.4027 42.6107 67.5075 42.4316C66.6302 42.2526 65.5023 42.1631 64.1237 42.1631H59.8806C58.878 42.1631 57.9738 42.3242 57.1682 42.6465C56.3804 42.9688 55.7538 43.4163 55.2883 43.9893C54.8228 44.5801 54.59 45.2604 54.59 46.0303C54.59 47.1582 55.1271 48.0444 56.2014 48.689C57.2935 49.3335 58.8153 49.6558 60.7668 49.6558ZM62.0827 26.8823C63.6224 26.8823 64.7504 26.4079 65.4665 25.459C66.1827 24.5101 66.5407 23.221 66.5407 21.5918C66.5407 19.7835 66.1647 18.4318 65.4128 17.5366C64.6787 16.6235 63.5687 16.167 62.0827 16.167C60.5788 16.167 59.4509 16.6235 58.6989 17.5366C57.947 18.4318 57.571 19.7835 57.571 21.5918C57.571 23.221 57.938 24.5101 58.6721 25.459C59.424 26.4079 60.5609 26.8823 62.0827 26.8823Z" fill="#281E11"/>
<path d="M89.8255 11.7627V41.7871H81.6346V11.7627H89.8255ZM85.7435 0C86.9609 0 88.0083 0.286458 88.8855 0.859375C89.7628 1.41439 90.2015 2.46175 90.2015 4.00146C90.2015 5.52327 89.7628 6.57959 88.8855 7.17041C88.0083 7.74333 86.9609 8.02979 85.7435 8.02979C84.5081 8.02979 83.4518 7.74333 82.5745 7.17041C81.7151 6.57959 81.2854 5.52327 81.2854 4.00146C81.2854 2.46175 81.7151 1.41439 82.5745 0.859375C83.4518 0.286458 84.5081 0 85.7435 0Z" fill="#281E11"/>
<path d="M104.06 42.3242C101.679 42.3242 99.781 41.8229 98.3666 40.8203C96.9522 39.8177 96.245 38.0094 96.245 35.3955C96.245 34.9658 96.2719 34.5003 96.3256 33.999C96.3793 33.4798 96.4599 32.9427 96.5673 32.3877L99.6557 17.9126H95.5736L96.3524 13.9648L101.616 11.709L105.161 5.37109H110.371L109.055 11.7627H116.655L115.312 17.9126H107.739L104.651 32.3877C104.597 32.6562 104.552 32.9248 104.517 33.1934C104.499 33.444 104.49 33.6499 104.49 33.811C104.49 34.5272 104.704 35.0374 105.134 35.3418C105.564 35.6462 106.137 35.7983 106.853 35.7983C107.587 35.7983 108.285 35.7178 108.948 35.5566C109.628 35.3776 110.38 35.1449 111.204 34.8584V40.9009C110.344 41.3127 109.306 41.6528 108.088 41.9214C106.889 42.1899 105.546 42.3242 104.06 42.3242Z" fill="#281E11"/>
<path d="M115.501 41.7871L121.866 11.7627H129.95L123.585 41.7871H115.501ZM127.21 8.02979C126.065 8.02979 125.098 7.77913 124.31 7.27783C123.54 6.77653 123.155 5.92611 123.155 4.72656C123.155 3.68815 123.343 2.81982 123.719 2.12158C124.113 1.42334 124.677 0.895182 125.411 0.537109C126.145 0.179036 127.022 0 128.043 0C129.117 0 130.048 0.232747 130.836 0.698242C131.642 1.16374 132.044 2.00521 132.044 3.22266C132.044 4.65495 131.651 5.81869 130.863 6.71387C130.075 7.59115 128.858 8.02979 127.21 8.02979Z" fill="#281E11"/>
<path d="M130.73 41.7871L139.592 0H147.675L138.813 41.7871H130.73Z" fill="#281E11"/>
<path d="M163.886 20.4121V10.1848H165.797V11.8494H165.924C166.137 11.2857 166.485 10.8462 166.969 10.5311C167.453 10.2115 168.032 10.0517 168.707 10.0517C169.39 10.0517 169.963 10.2115 170.425 10.5311C170.891 10.8507 171.235 11.2901 171.457 11.8494H171.563C171.807 11.3034 172.196 10.8684 172.729 10.5444C173.261 10.2159 173.896 10.0517 174.633 10.0517C175.561 10.0517 176.317 10.3424 176.903 10.9239C177.494 11.5054 177.789 12.3821 177.789 13.554V20.4121H175.798V13.7404C175.798 13.0479 175.609 12.5463 175.232 12.2356C174.855 11.9249 174.404 11.7695 173.88 11.7695C173.232 11.7695 172.729 11.9693 172.369 12.3688C172.009 12.7638 171.83 13.2721 171.83 13.8936V20.4121H169.845V13.6139C169.845 13.059 169.672 12.6129 169.326 12.2756C168.98 11.9382 168.529 11.7695 167.974 11.7695C167.597 11.7695 167.249 11.8694 166.929 12.0692C166.614 12.2645 166.359 12.5375 166.163 12.8881C165.972 13.2388 165.877 13.645 165.877 14.1066V20.4121H163.886Z" fill="#281E11"/>
<path d="M182.684 20.6385C182.035 20.6385 181.45 20.5186 180.926 20.2789C180.402 20.0348 179.987 19.6819 179.681 19.2203C179.379 18.7586 179.228 18.1926 179.228 17.5224C179.228 16.9453 179.339 16.4703 179.561 16.0975C179.783 15.7246 180.082 15.4294 180.46 15.2119C180.837 14.9944 181.259 14.8302 181.725 14.7192C182.191 14.6082 182.666 14.5239 183.15 14.4662C183.762 14.3952 184.259 14.3374 184.641 14.2931C185.023 14.2442 185.3 14.1665 185.473 14.06C185.646 13.9535 185.733 13.7804 185.733 13.5407V13.4941C185.733 12.9126 185.569 12.462 185.24 12.1424C184.916 11.8228 184.432 11.663 183.789 11.663C183.119 11.663 182.59 11.8117 182.204 12.1091C181.822 12.4021 181.558 12.7283 181.412 13.0879L179.541 12.6618C179.763 12.0403 180.087 11.5387 180.513 11.157C180.943 10.7708 181.438 10.4911 181.998 10.318C182.557 10.1404 183.145 10.0517 183.762 10.0517C184.171 10.0517 184.603 10.1005 185.061 10.1982C185.522 10.2914 185.953 10.4645 186.352 10.7175C186.756 10.9705 187.087 11.3323 187.344 11.8028C187.602 12.2689 187.731 12.8748 187.731 13.6206V20.4121H185.786V19.0138H185.706C185.578 19.2713 185.385 19.5243 185.127 19.7729C184.87 20.0215 184.539 20.2279 184.135 20.3921C183.731 20.5564 183.247 20.6385 182.684 20.6385ZM183.116 19.0405C183.667 19.0405 184.137 18.9317 184.528 18.7142C184.923 18.4967 185.223 18.2126 185.427 17.8619C185.635 17.5068 185.74 17.1273 185.74 16.7234V15.405C185.669 15.476 185.531 15.5426 185.327 15.6048C185.127 15.6625 184.899 15.7135 184.641 15.7579C184.384 15.7979 184.133 15.8356 183.889 15.8711C183.645 15.9022 183.44 15.9288 183.276 15.951C182.89 15.9998 182.537 16.0819 182.217 16.1974C181.902 16.3128 181.649 16.4792 181.458 16.6967C181.272 16.9098 181.179 17.1939 181.179 17.549C181.179 18.0417 181.361 18.4146 181.725 18.6676C182.089 18.9162 182.553 19.0405 183.116 19.0405Z" fill="#281E11"/>
<path d="M191.463 16.9431L191.45 14.5128H191.796L195.871 10.1848H198.255L193.607 15.112H193.294L191.463 16.9431ZM189.632 20.4121V6.77575H191.623V20.4121H189.632ZM196.091 20.4121L192.429 15.5515L193.8 14.1599L198.535 20.4121H196.091Z" fill="#281E11"/>
<path d="M199.319 20.4121V10.1848H201.31V20.4121H199.319ZM200.325 8.6068C199.978 8.6068 199.681 8.49139 199.432 8.26056C199.188 8.0253 199.066 7.74565 199.066 7.42161C199.066 7.09313 199.188 6.81348 199.432 6.58265C199.681 6.34739 199.978 6.22976 200.325 6.22976C200.671 6.22976 200.966 6.34739 201.21 6.58265C201.459 6.81348 201.583 7.09313 201.583 7.42161C201.583 7.74565 201.459 8.0253 201.21 8.26056C200.966 8.49139 200.671 8.6068 200.325 8.6068Z" fill="#281E11"/>
<path d="M205.229 14.3397V20.4121H203.238V10.1848H205.149V11.8494H205.276C205.511 11.3079 205.88 10.8729 206.381 10.5444C206.887 10.2159 207.524 10.0517 208.292 10.0517C208.989 10.0517 209.599 10.1982 210.123 10.4911C210.647 10.7797 211.053 11.2102 211.342 11.7828C211.63 12.3555 211.775 13.0635 211.775 13.9069V20.4121H209.784V14.1466C209.784 13.4053 209.591 12.826 209.204 12.4087C208.818 11.987 208.288 11.7762 207.613 11.7762C207.151 11.7762 206.741 11.8761 206.381 12.0758C206.026 12.2756 205.744 12.5685 205.536 12.9547C205.331 13.3365 205.229 13.7981 205.229 14.3397Z" fill="#281E11"/>
<path d="M217.983 24.4604C217.17 24.4604 216.471 24.3539 215.885 24.1408C215.304 23.9277 214.829 23.6459 214.46 23.2952C214.092 22.9445 213.817 22.5605 213.635 22.1433L215.346 21.4375C215.466 21.6328 215.625 21.8392 215.825 22.0567C216.029 22.2787 216.305 22.4673 216.651 22.6227C217.002 22.7781 217.452 22.8557 218.003 22.8557C218.757 22.8557 219.381 22.6715 219.874 22.3031C220.366 21.9391 220.613 21.3576 220.613 20.5586V18.5478H220.486C220.366 18.7653 220.193 19.0072 219.967 19.2735C219.745 19.5399 219.438 19.7707 219.048 19.966C218.657 20.1613 218.149 20.259 217.523 20.259C216.715 20.259 215.987 20.0703 215.339 19.693C214.696 19.3113 214.185 18.7497 213.808 18.0084C213.435 17.2627 213.248 16.3461 213.248 15.2585C213.248 14.171 213.433 13.2388 213.801 12.462C214.174 11.6852 214.684 11.0904 215.333 10.6776C215.981 10.2603 216.715 10.0517 217.536 10.0517C218.171 10.0517 218.684 10.1582 219.075 10.3713C219.465 10.5799 219.769 10.824 219.987 11.1037C220.209 11.3833 220.38 11.6297 220.499 11.8428H220.646V10.1848H222.597V20.6385C222.597 21.5174 222.393 22.2387 221.984 22.8025C221.576 23.3662 221.023 23.7835 220.326 24.0542C219.634 24.325 218.853 24.4604 217.983 24.4604ZM217.963 18.6077C218.535 18.6077 219.019 18.4745 219.414 18.2082C219.814 17.9374 220.115 17.5512 220.32 17.0496C220.528 16.5436 220.633 15.9377 220.633 15.2319C220.633 14.5439 220.53 13.9379 220.326 13.4142C220.122 12.8904 219.822 12.482 219.427 12.189C219.032 11.8916 218.544 11.7429 217.963 11.7429C217.363 11.7429 216.864 11.8983 216.464 12.209C216.065 12.5153 215.763 12.9325 215.559 13.4608C215.359 13.989 215.259 14.5794 215.259 15.2319C215.259 15.9022 215.361 16.4903 215.566 16.9964C215.77 17.5024 216.072 17.8975 216.471 18.1816C216.875 18.4656 217.372 18.6077 217.963 18.6077Z" fill="#281E11"/>
<path d="M230.72 6.77575V20.4121H228.729V6.77575H230.72Z" fill="#281E11"/>
<path d="M235.624 20.6385C234.976 20.6385 234.39 20.5186 233.867 20.2789C233.343 20.0348 232.928 19.6819 232.622 19.2203C232.32 18.7586 232.169 18.1926 232.169 17.5224C232.169 16.9453 232.28 16.4703 232.502 16.0975C232.724 15.7246 233.023 15.4294 233.401 15.2119C233.778 14.9944 234.2 14.8302 234.666 14.7192C235.132 14.6082 235.607 14.5239 236.091 14.4662C236.703 14.3952 237.2 14.3374 237.582 14.2931C237.964 14.2442 238.241 14.1665 238.414 14.06C238.587 13.9535 238.674 13.7804 238.674 13.5407V13.4941C238.674 12.9126 238.51 12.462 238.181 12.1424C237.857 11.8228 237.373 11.663 236.73 11.663C236.059 11.663 235.531 11.8117 235.145 12.1091C234.763 12.4021 234.499 12.7283 234.353 13.0879L232.482 12.6618C232.704 12.0403 233.028 11.5387 233.454 11.157C233.884 10.7708 234.379 10.4911 234.939 10.318C235.498 10.1404 236.086 10.0517 236.703 10.0517C237.111 10.0517 237.544 10.1005 238.001 10.1982C238.463 10.2914 238.894 10.4645 239.293 10.7175C239.697 10.9705 240.028 11.3323 240.285 11.8028C240.543 12.2689 240.671 12.8748 240.671 13.6206V20.4121H238.727V19.0138H238.647C238.519 19.2713 238.326 19.5243 238.068 19.7729C237.811 20.0215 237.48 20.2279 237.076 20.3921C236.672 20.5564 236.188 20.6385 235.624 20.6385ZM236.057 19.0405C236.608 19.0405 237.078 18.9317 237.469 18.7142C237.864 18.4967 238.163 18.2126 238.368 17.8619C238.576 17.5068 238.681 17.1273 238.681 16.7234V15.405C238.61 15.476 238.472 15.5426 238.268 15.6048C238.068 15.6625 237.839 15.7135 237.582 15.7579C237.325 15.7979 237.074 15.8356 236.83 15.8711C236.585 15.9022 236.381 15.9288 236.217 15.951C235.831 15.9998 235.478 16.0819 235.158 16.1974C234.843 16.3128 234.59 16.4792 234.399 16.6967C234.213 16.9098 234.12 17.1939 234.12 17.549C234.12 18.0417 234.302 18.4146 234.666 18.6676C235.03 18.9162 235.493 19.0405 236.057 19.0405Z" fill="#281E11"/>
<path d="M244.564 14.3397V20.4121H242.573V10.1848H244.484V11.8494H244.611C244.846 11.3079 245.214 10.8729 245.716 10.5444C246.222 10.2159 246.859 10.0517 247.627 10.0517C248.324 10.0517 248.934 10.1982 249.458 10.4911C249.982 10.7797 250.388 11.2102 250.676 11.7828C250.965 12.3555 251.109 13.0635 251.109 13.9069V20.4121H249.118V14.1466C249.118 13.4053 248.925 12.826 248.539 12.4087C248.153 11.987 247.622 11.7762 246.948 11.7762C246.486 11.7762 246.076 11.8761 245.716 12.0758C245.361 12.2756 245.079 12.5685 244.87 12.9547C244.666 13.3365 244.564 13.7981 244.564 14.3397Z" fill="#281E11"/>
<path d="M257.317 24.4604C256.505 24.4604 255.806 24.3539 255.22 24.1408C254.638 23.9277 254.163 23.6459 253.795 23.2952C253.427 22.9445 253.151 22.5605 252.969 22.1433L254.681 21.4375C254.8 21.6328 254.96 21.8392 255.16 22.0567C255.364 22.2787 255.639 22.4673 255.986 22.6227C256.336 22.7781 256.787 22.8557 257.337 22.8557C258.092 22.8557 258.716 22.6715 259.208 22.3031C259.701 21.9391 259.947 21.3576 259.947 20.5586V18.5478H259.821C259.701 18.7653 259.528 19.0072 259.301 19.2735C259.079 19.5399 258.773 19.7707 258.383 19.966C257.992 20.1613 257.484 20.259 256.858 20.259C256.05 20.259 255.322 20.0703 254.674 19.693C254.03 19.3113 253.52 18.7497 253.142 18.0084C252.77 17.2627 252.583 16.3461 252.583 15.2585C252.583 14.171 252.767 13.2388 253.136 12.462C253.509 11.6852 254.019 11.0904 254.667 10.6776C255.315 10.2603 256.05 10.0517 256.871 10.0517C257.506 10.0517 258.019 10.1582 258.409 10.3713C258.8 10.5799 259.104 10.824 259.321 11.1037C259.543 11.3833 259.714 11.6297 259.834 11.8428H259.981V10.1848H261.932V20.6385C261.932 21.5174 261.727 22.2387 261.319 22.8025C260.911 23.3662 260.358 23.7835 259.661 24.0542C258.969 24.325 258.187 24.4604 257.317 24.4604ZM257.297 18.6077C257.87 18.6077 258.354 18.4745 258.749 18.2082C259.148 17.9374 259.45 17.5512 259.654 17.0496C259.863 16.5436 259.967 15.9377 259.967 15.2319C259.967 14.5439 259.865 13.9379 259.661 13.4142C259.457 12.8904 259.157 12.482 258.762 12.189C258.367 11.8916 257.879 11.7429 257.297 11.7429C256.698 11.7429 256.199 11.8983 255.799 12.209C255.4 12.5153 255.098 12.9325 254.894 13.4608C254.694 13.989 254.594 14.5794 254.594 15.2319C254.594 15.9022 254.696 16.4903 254.9 16.9964C255.104 17.5024 255.406 17.8975 255.806 18.1816C256.21 18.4656 256.707 18.6077 257.297 18.6077Z" fill="#281E11"/>
<path d="M270.33 16.1707V10.1848H272.328V20.4121H270.37V18.641H270.264C270.028 19.187 269.651 19.642 269.132 20.0059C268.617 20.3655 267.975 20.5453 267.207 20.5453C266.55 20.5453 265.969 20.401 265.463 20.1125C264.961 19.8195 264.566 19.3867 264.278 18.8141C263.994 18.2415 263.852 17.5335 263.852 16.6901V10.1848H265.842V16.4504C265.842 17.1473 266.035 17.7021 266.422 18.115C266.808 18.5278 267.309 18.7342 267.926 18.7342C268.299 18.7342 268.67 18.641 269.038 18.4545C269.411 18.2681 269.72 17.9862 269.964 17.6089C270.212 17.2316 270.335 16.7522 270.33 16.1707Z" fill="#281E11"/>
<path d="M277.229 20.6385C276.581 20.6385 275.995 20.5186 275.471 20.2789C274.947 20.0348 274.532 19.6819 274.226 19.2203C273.924 18.7586 273.773 18.1926 273.773 17.5224C273.773 16.9453 273.884 16.4703 274.106 16.0975C274.328 15.7246 274.628 15.4294 275.005 15.2119C275.382 14.9944 275.804 14.8302 276.27 14.7192C276.736 14.6082 277.211 14.5239 277.695 14.4662C278.308 14.3952 278.805 14.3374 279.186 14.2931C279.568 14.2442 279.846 14.1665 280.019 14.06C280.192 13.9535 280.278 13.7804 280.278 13.5407V13.4941C280.278 12.9126 280.114 12.462 279.786 12.1424C279.462 11.8228 278.978 11.663 278.334 11.663C277.664 11.663 277.136 11.8117 276.75 12.1091C276.368 12.4021 276.104 12.7283 275.957 13.0879L274.086 12.6618C274.308 12.0403 274.632 11.5387 275.058 11.157C275.489 10.7708 275.984 10.4911 276.543 10.318C277.102 10.1404 277.691 10.0517 278.308 10.0517C278.716 10.0517 279.149 10.1005 279.606 10.1982C280.068 10.2914 280.498 10.4645 280.898 10.7175C281.302 10.9705 281.632 11.3323 281.89 11.8028C282.147 12.2689 282.276 12.8748 282.276 13.6206V20.4121H280.332V19.0138H280.252C280.123 19.2713 279.93 19.5243 279.673 19.7729C279.415 20.0215 279.084 20.2279 278.68 20.3921C278.277 20.5564 277.793 20.6385 277.229 20.6385ZM277.662 19.0405C278.212 19.0405 278.683 18.9317 279.073 18.7142C279.468 18.4967 279.768 18.2126 279.972 17.8619C280.181 17.5068 280.285 17.1273 280.285 16.7234V15.405C280.214 15.476 280.077 15.5426 279.872 15.6048C279.673 15.6625 279.444 15.7135 279.186 15.7579C278.929 15.7979 278.678 15.8356 278.434 15.8711C278.19 15.9022 277.986 15.9288 277.822 15.951C277.435 15.9998 277.082 16.0819 276.763 16.1974C276.448 16.3128 276.195 16.4792 276.004 16.6967C275.817 16.9098 275.724 17.1939 275.724 17.549C275.724 18.0417 275.906 18.4146 276.27 18.6676C276.634 18.9162 277.098 19.0405 277.662 19.0405Z" fill="#281E11"/>
<path d="M288.466 24.4604C287.653 24.4604 286.954 24.3539 286.368 24.1408C285.787 23.9277 285.312 23.6459 284.943 23.2952C284.575 22.9445 284.3 22.5605 284.118 22.1433L285.829 21.4375C285.949 21.6328 286.109 21.8392 286.308 22.0567C286.513 22.2787 286.788 22.4673 287.134 22.6227C287.485 22.7781 287.935 22.8557 288.486 22.8557C289.24 22.8557 289.864 22.6715 290.357 22.3031C290.849 21.9391 291.096 21.3576 291.096 20.5586V18.5478H290.969C290.849 18.7653 290.676 19.0072 290.45 19.2735C290.228 19.5399 289.922 19.7707 289.531 19.966C289.14 20.1613 288.632 20.259 288.006 20.259C287.198 20.259 286.47 20.0703 285.822 19.693C285.179 19.3113 284.668 18.7497 284.291 18.0084C283.918 17.2627 283.732 16.3461 283.732 15.2585C283.732 14.171 283.916 13.2388 284.284 12.462C284.657 11.6852 285.168 11.0904 285.816 10.6776C286.464 10.2603 287.198 10.0517 288.02 10.0517C288.654 10.0517 289.167 10.1582 289.558 10.3713C289.948 10.5799 290.252 10.824 290.47 11.1037C290.692 11.3833 290.863 11.6297 290.983 11.8428H291.129V10.1848H293.08V20.6385C293.08 21.5174 292.876 22.2387 292.467 22.8025C292.059 23.3662 291.506 23.7835 290.809 24.0542C290.117 24.325 289.336 24.4604 288.466 24.4604ZM288.446 18.6077C289.018 18.6077 289.502 18.4745 289.897 18.2082C290.297 17.9374 290.599 17.5512 290.803 17.0496C291.011 16.5436 291.116 15.9377 291.116 15.2319C291.116 14.5439 291.014 13.9379 290.809 13.4142C290.605 12.8904 290.306 12.482 289.911 12.189C289.516 11.8916 289.027 11.7429 288.446 11.7429C287.846 11.7429 287.347 11.8983 286.948 12.209C286.548 12.5153 286.246 12.9325 286.042 13.4608C285.842 13.989 285.742 14.5794 285.742 15.2319C285.742 15.9022 285.845 16.4903 286.049 16.9964C286.253 17.5024 286.555 17.8975 286.954 18.1816C287.358 18.4656 287.855 18.6077 288.446 18.6077Z" fill="#281E11"/>
<path d="M299.408 20.6185C298.4 20.6185 297.532 20.4032 296.804 19.9727C296.081 19.5376 295.522 18.9273 295.126 18.1416C294.736 17.3515 294.541 16.426 294.541 15.3651C294.541 14.3175 294.736 13.3942 295.126 12.5952C295.522 11.7962 296.072 11.1725 296.778 10.7242C297.488 10.2758 298.318 10.0517 299.268 10.0517C299.845 10.0517 300.404 10.1471 300.946 10.338C301.487 10.5289 301.974 10.8285 302.404 11.2369C302.835 11.6452 303.174 12.1757 303.423 12.8282C303.671 13.4763 303.796 14.2642 303.796 15.1919V15.8977H295.666V14.4062H301.845C301.845 13.8825 301.738 13.4186 301.525 13.0146C301.312 12.6063 301.012 12.2844 300.626 12.0492C300.245 11.8139 299.796 11.6963 299.281 11.6963C298.722 11.6963 298.234 11.8339 297.816 12.1091C297.404 12.3799 297.084 12.735 296.858 13.1744C296.636 13.6095 296.525 14.0822 296.525 14.5927V15.7579C296.525 16.4415 296.645 17.023 296.884 17.5024C297.128 17.9818 297.468 18.348 297.903 18.601C298.338 18.8496 298.846 18.9739 299.428 18.9739C299.805 18.9739 300.149 18.9206 300.46 18.8141C300.771 18.7031 301.039 18.5389 301.266 18.3214C301.492 18.1039 301.665 17.8353 301.785 17.5157L303.669 17.8553C303.518 18.4102 303.247 18.8962 302.857 19.3135C302.471 19.7263 301.985 20.0481 301.399 20.2789C300.817 20.5053 300.154 20.6185 299.408 20.6185Z" fill="#281E11"/>
<path d="M312.918 12.6817L311.114 13.0013C311.039 12.7705 310.919 12.5508 310.754 12.3422C310.595 12.1335 310.377 11.9626 310.102 11.8295C309.827 11.6963 309.483 11.6297 309.07 11.6297C308.506 11.6297 308.036 11.7562 307.658 12.0092C307.281 12.2578 307.092 12.5796 307.092 12.9747C307.092 13.3165 307.219 13.5917 307.472 13.8003C307.725 14.009 308.133 14.1799 308.697 14.313L310.322 14.6859C311.263 14.9034 311.964 15.2385 312.426 15.6913C312.887 16.1441 313.118 16.7322 313.118 17.4558C313.118 18.0684 312.941 18.6143 312.585 19.0938C312.235 19.5687 311.744 19.9416 311.114 20.2124C310.488 20.4831 309.762 20.6185 308.937 20.6185C307.791 20.6185 306.857 20.3744 306.134 19.8861C305.41 19.3934 304.966 18.6942 304.802 17.7887L306.726 17.4957C306.846 17.9973 307.092 18.3769 307.465 18.6343C307.838 18.8873 308.324 19.0138 308.923 19.0138C309.576 19.0138 310.097 18.8785 310.488 18.6077C310.879 18.3325 311.074 17.9973 311.074 17.6023C311.074 17.2827 310.954 17.0141 310.714 16.7966C310.479 16.5791 310.117 16.4149 309.629 16.3039L307.898 15.9244C306.944 15.7069 306.238 15.3606 305.781 14.8857C305.328 14.4107 305.101 13.8092 305.101 13.0812C305.101 12.4775 305.27 11.9493 305.607 11.4965C305.945 11.0438 306.411 10.6909 307.006 10.4379C307.601 10.1804 308.282 10.0517 309.05 10.0517C310.155 10.0517 311.025 10.2914 311.66 10.7708C312.295 11.2457 312.714 11.8827 312.918 12.6817Z" fill="#281E11"/>
<path d="M163.886 41.4121V31.1848H165.877V41.4121H163.886ZM164.892 29.6068C164.545 29.6068 164.248 29.4914 163.999 29.2606C163.755 29.0253 163.633 28.7456 163.633 28.4216C163.633 28.0931 163.755 27.8135 163.999 27.5827C164.248 27.3474 164.545 27.2298 164.892 27.2298C165.238 27.2298 165.533 27.3474 165.777 27.5827C166.026 27.8135 166.15 28.0931 166.15 28.4216C166.15 28.7456 166.026 29.0253 165.777 29.2606C165.533 29.4914 165.238 29.6068 164.892 29.6068Z" fill="#281E11"/>
<path d="M169.796 35.3397V41.4121H167.805V31.1848H169.716V32.8494H169.843C170.078 32.3079 170.447 31.8729 170.948 31.5444C171.454 31.2159 172.091 31.0517 172.859 31.0517C173.556 31.0517 174.166 31.1982 174.69 31.4911C175.214 31.7797 175.62 32.2102 175.909 32.7828C176.197 33.3555 176.341 34.0635 176.341 34.9069V41.4121H174.351V35.1466C174.351 34.4053 174.157 33.826 173.771 33.4087C173.385 32.987 172.855 32.7762 172.18 32.7762C171.718 32.7762 171.308 32.8761 170.948 33.0758C170.593 33.2756 170.311 33.5685 170.103 33.9547C169.898 34.3365 169.796 34.7981 169.796 35.3397Z" fill="#281E11"/>
<path d="M182.569 41.6185C181.58 41.6185 180.727 41.3944 180.013 40.946C179.302 40.4933 178.756 39.8696 178.375 39.075C177.993 38.2804 177.802 37.3705 177.802 36.3451C177.802 35.3064 177.997 34.3897 178.388 33.5952C178.779 32.7962 179.329 32.1725 180.039 31.7242C180.749 31.2758 181.586 31.0517 182.549 31.0517C183.326 31.0517 184.019 31.1959 184.627 31.4845C185.235 31.7686 185.725 32.1681 186.098 32.683C186.476 33.1979 186.7 33.7994 186.771 34.4874H184.833C184.727 34.008 184.483 33.5952 184.101 33.2489C183.724 32.9027 183.217 32.7296 182.583 32.7296C182.028 32.7296 181.542 32.8761 181.125 33.169C180.712 33.4576 180.39 33.8704 180.159 34.4075C179.928 34.9402 179.813 35.5705 179.813 36.2985C179.813 37.0442 179.926 37.6879 180.152 38.2294C180.379 38.771 180.698 39.1904 181.111 39.4878C181.528 39.7852 182.019 39.9339 182.583 39.9339C182.96 39.9339 183.302 39.8651 183.608 39.7275C183.919 39.5855 184.179 39.3835 184.387 39.1216C184.6 38.8597 184.749 38.5446 184.833 38.1761H186.771C186.7 38.8375 186.485 39.4279 186.125 39.9473C185.765 40.4666 185.284 40.875 184.68 41.1724C184.081 41.4698 183.377 41.6185 182.569 41.6185Z" fill="#281E11"/>
<path d="M190.141 27.7757V41.4121H188.15V27.7757H190.141Z" fill="#281E11"/>
<path d="M198.548 37.1707V31.1848H200.545V41.4121H198.588V39.641H198.481C198.246 40.187 197.868 40.642 197.349 41.0059C196.834 41.3655 196.193 41.5453 195.425 41.5453C194.768 41.5453 194.186 41.401 193.68 41.1125C193.179 40.8195 192.784 40.3867 192.495 39.8141C192.211 39.2415 192.069 38.5335 192.069 37.6901V31.1848H194.06V37.4504C194.06 38.1473 194.253 38.7021 194.639 39.115C195.025 39.5278 195.527 39.7342 196.144 39.7342C196.517 39.7342 196.887 39.641 197.256 39.4545C197.629 39.2681 197.937 38.9862 198.181 38.6089C198.43 38.2316 198.552 37.7522 198.548 37.1707Z" fill="#281E11"/>
<path d="M210.134 33.6817L208.33 34.0013C208.254 33.7705 208.134 33.5508 207.97 33.3422C207.81 33.1335 207.593 32.9626 207.317 32.8295C207.042 32.6963 206.698 32.6297 206.285 32.6297C205.722 32.6297 205.251 32.7562 204.874 33.0092C204.497 33.2578 204.308 33.5796 204.308 33.9747C204.308 34.3165 204.434 34.5917 204.687 34.8003C204.94 35.009 205.349 35.1799 205.913 35.313L207.537 35.6859C208.478 35.9034 209.18 36.2385 209.641 36.6913C210.103 37.1441 210.334 37.7322 210.334 38.4558C210.334 39.0684 210.156 39.6143 209.801 40.0938C209.45 40.5687 208.96 40.9416 208.33 41.2124C207.704 41.4831 206.978 41.6185 206.152 41.6185C205.007 41.6185 204.073 41.3744 203.349 40.8861C202.626 40.3934 202.182 39.6942 202.017 38.7887L203.942 38.4957C204.062 38.9973 204.308 39.3769 204.681 39.6343C205.054 39.8873 205.54 40.0139 206.139 40.0139C206.791 40.0139 207.313 39.8785 207.704 39.6077C208.094 39.3325 208.29 38.9973 208.29 38.6023C208.29 38.2827 208.17 38.0141 207.93 37.7966C207.695 37.5791 207.333 37.4149 206.845 37.3039L205.114 36.9244C204.159 36.7069 203.453 36.3606 202.996 35.8857C202.543 35.4107 202.317 34.8092 202.317 34.0812C202.317 33.4775 202.486 32.9493 202.823 32.4965C203.16 32.0438 203.627 31.6909 204.221 31.4379C204.816 31.1804 205.498 31.0517 206.265 31.0517C207.371 31.0517 208.241 31.2914 208.876 31.7708C209.51 32.2457 209.93 32.8827 210.134 33.6817Z" fill="#281E11"/>
<path d="M211.773 41.4121V31.1848H213.764V41.4121H211.773ZM212.778 29.6068C212.432 29.6068 212.134 29.4914 211.886 29.2606C211.642 29.0253 211.52 28.7456 211.52 28.4216C211.52 28.0931 211.642 27.8135 211.886 27.5827C212.134 27.3474 212.432 27.2298 212.778 27.2298C213.124 27.2298 213.419 27.3474 213.664 27.5827C213.912 27.8135 214.037 28.0931 214.037 28.4216C214.037 28.7456 213.912 29.0253 213.664 29.2606C213.419 29.4914 213.124 29.6068 212.778 29.6068Z" fill="#281E11"/>
<path d="M224.441 31.1848L220.732 41.4121H218.602L214.886 31.1848H217.024L219.614 39.055H219.72L222.304 31.1848H224.441Z" fill="#281E11"/>
<path d="M229.622 41.6185C228.614 41.6185 227.746 41.4032 227.018 40.9727C226.295 40.5376 225.736 39.9273 225.341 39.1416C224.95 38.3515 224.755 37.426 224.755 36.3651C224.755 35.3175 224.95 34.3942 225.341 33.5952C225.736 32.7962 226.286 32.1725 226.992 31.7242C227.702 31.2758 228.532 31.0517 229.482 31.0517C230.059 31.0517 230.618 31.1471 231.16 31.338C231.702 31.5289 232.188 31.8285 232.618 32.2369C233.049 32.6452 233.388 33.1757 233.637 33.8282C233.885 34.4763 234.01 35.2642 234.01 36.1919V36.8977H225.88V35.4062H232.059C232.059 34.8825 231.952 34.4186 231.739 34.0146C231.526 33.6063 231.227 33.2844 230.84 33.0492C230.459 32.8139 230.01 32.6963 229.495 32.6963C228.936 32.6963 228.448 32.8339 228.031 33.1091C227.618 33.3799 227.298 33.735 227.072 34.1744C226.85 34.6095 226.739 35.0822 226.739 35.5927V36.7579C226.739 37.4415 226.859 38.023 227.098 38.5024C227.343 38.9818 227.682 39.348 228.117 39.601C228.552 39.8496 229.06 39.9739 229.642 39.9739C230.019 39.9739 230.363 39.9206 230.674 39.8141C230.985 39.7031 231.253 39.5389 231.48 39.3214C231.706 39.1039 231.879 38.8353 231.999 38.5157L233.883 38.8553C233.732 39.4102 233.462 39.8962 233.071 40.3135C232.685 40.7263 232.199 41.0481 231.613 41.2789C231.031 41.5053 230.368 41.6185 229.622 41.6185Z" fill="#281E11"/>
<path d="M246.013 37.1707L247.012 31.1848H249.009L247.305 41.4121H245.347L245.647 39.641H245.54C245.221 40.187 244.768 40.642 244.182 41.0059C243.6 41.3655 242.926 41.5453 242.158 41.5453C241.501 41.5453 240.944 41.401 240.487 41.1125C240.034 40.8195 239.712 40.3867 239.521 39.8141C239.33 39.2415 239.304 38.5335 239.441 37.6901L240.533 31.1848H242.524L241.479 37.4504C241.368 38.1473 241.472 38.7021 241.792 39.115C242.111 39.5278 242.577 39.7342 243.19 39.7342C243.563 39.7342 243.949 39.641 244.348 39.4545C244.748 39.2681 245.101 38.9862 245.407 38.6089C245.718 38.2316 245.92 37.7522 246.013 37.1707Z" fill="#281E11"/>
<path d="M249.023 41.4121L249.256 40.0471L255.948 33.0092L255.975 32.916H250.621L250.908 31.1848H258.751L258.512 32.6364L252.033 39.5877L252.006 39.6809H257.519L257.233 41.4121H249.023Z" fill="#281E11"/>
<path d="M258.985 41.4121L261.249 27.7757H263.24L262.407 32.8428H262.527C262.678 32.6297 262.885 32.3833 263.146 32.1037C263.413 31.824 263.757 31.5799 264.178 31.3713C264.6 31.1582 265.128 31.0517 265.763 31.0517C266.589 31.0517 267.29 31.2603 267.867 31.6776C268.444 32.0948 268.853 32.6963 269.092 33.482C269.332 34.2677 269.361 35.2132 269.179 36.3184C268.997 37.4237 268.655 38.3714 268.154 39.1616C267.656 39.9473 267.05 40.5532 266.336 40.9793C265.621 41.401 264.851 41.6119 264.025 41.6119C263.404 41.6119 262.913 41.5075 262.554 41.2989C262.199 41.0903 261.932 40.8461 261.755 40.5665C261.582 40.2868 261.451 40.0383 261.362 39.8208H261.196L260.929 41.4121H258.985ZM261.788 36.2985C261.673 37.0176 261.673 37.6479 261.788 38.1895C261.908 38.731 262.141 39.1549 262.487 39.4612C262.838 39.7631 263.297 39.914 263.866 39.914C264.46 39.914 264.984 39.7564 265.437 39.4412C265.89 39.1216 266.263 38.6888 266.556 38.1428C266.849 37.5969 267.053 36.9821 267.168 36.2985C267.275 35.6238 267.272 35.0178 267.161 34.4807C267.051 33.9436 266.82 33.5197 266.469 33.209C266.123 32.8983 265.65 32.7429 265.051 32.7429C264.474 32.7429 263.961 32.8916 263.513 33.189C263.064 33.4864 262.694 33.9015 262.401 34.4341C262.108 34.9668 261.904 35.5882 261.788 36.2985Z" fill="#281E11"/>
<path d="M274.193 41.6185C273.19 41.6185 272.36 41.4032 271.703 40.9727C271.051 40.5376 270.593 39.9273 270.332 39.1416C270.07 38.3515 270.028 37.426 270.205 36.3651C270.378 35.3175 270.727 34.3942 271.25 33.5952C271.774 32.7962 272.427 32.1725 273.208 31.7242C273.994 31.2758 274.862 31.0517 275.811 31.0517C276.388 31.0517 276.932 31.1471 277.443 31.338C277.958 31.5289 278.395 31.8285 278.754 32.2369C279.114 32.6452 279.363 33.1757 279.5 33.8282C279.642 34.4763 279.638 35.2642 279.487 36.1919L279.374 36.8977H271.237L271.47 35.4062H277.649C277.742 34.8825 277.718 34.4186 277.576 34.0146C277.434 33.6063 277.19 33.2844 276.843 33.0492C276.502 32.8139 276.071 32.6963 275.552 32.6963C275.019 32.6963 274.522 32.8361 274.06 33.1158C273.599 33.3954 273.212 33.7528 272.902 34.1878C272.595 34.6183 272.402 35.0622 272.322 35.5194L272.089 36.8844C271.974 37.6301 271.994 38.2294 272.149 38.6822C272.309 39.1349 272.589 39.4634 272.988 39.6676C273.388 39.8718 273.887 39.9739 274.486 39.9739C274.873 39.9739 275.23 39.9206 275.558 39.8141C275.891 39.7031 276.187 39.5411 276.444 39.328C276.701 39.1105 276.917 38.8398 277.09 38.5157L278.914 38.8553C278.67 39.4102 278.319 39.8962 277.862 40.3135C277.405 40.7263 276.866 41.0481 276.244 41.2789C275.627 41.5053 274.944 41.6185 274.193 41.6185Z" fill="#281E11"/>
<path d="M282.507 37.9431L282.887 35.5128H283.24L288.047 31.1848H290.431L284.971 36.112H284.658L282.507 37.9431ZM280.103 41.4121L282.367 27.7757H284.358L282.094 41.4121H280.103ZM286.562 41.4121L283.712 36.5515L285.304 35.1599L289.006 41.4121H286.562Z" fill="#281E11"/>
<path d="M300.574 31.1848L300.315 32.7828H294.535L294.795 31.1848H300.574ZM294.675 41.4121L296.579 29.9996C296.677 29.3604 296.901 28.83 297.252 28.4083C297.603 27.9822 298.027 27.6648 298.524 27.4561C299.021 27.2431 299.54 27.1365 300.082 27.1365C300.481 27.1365 300.816 27.1698 301.087 27.2364C301.362 27.2986 301.562 27.3563 301.686 27.4095L300.961 29.0209C300.872 28.9942 300.759 28.9632 300.621 28.9276C300.483 28.8877 300.31 28.8677 300.102 28.8677C299.618 28.8677 299.252 28.9876 299.003 29.2273C298.759 29.467 298.595 29.8132 298.51 30.266L296.666 41.4121H294.675Z" fill="#281E11"/>
<path d="M300.174 41.4121L301.879 31.1848H303.869L302.165 41.4121H300.174ZM303.29 29.5868C302.944 29.5868 302.651 29.4714 302.411 29.2406C302.176 29.0053 302.067 28.7257 302.085 28.4016C302.103 28.0732 302.24 27.7935 302.498 27.5627C302.755 27.3274 303.055 27.2098 303.397 27.2098C303.743 27.2098 304.034 27.3274 304.269 27.5627C304.504 27.7935 304.615 28.0732 304.602 28.4016C304.584 28.7257 304.447 29.0053 304.189 29.2406C303.936 29.4714 303.636 29.5868 303.29 29.5868Z" fill="#281E11"/>
<path d="M304.093 41.4121L305.798 31.1848H307.722L307.449 32.8095H307.556C307.831 32.2591 308.233 31.8263 308.761 31.5111C309.289 31.1915 309.853 31.0317 310.452 31.0317C310.581 31.0317 310.727 31.0361 310.891 31.045C311.056 31.0494 311.189 31.0605 311.291 31.0783L310.971 32.9826C310.896 32.9604 310.758 32.936 310.559 32.9094C310.359 32.8783 310.152 32.8627 309.939 32.8627C309.473 32.8627 309.04 32.9626 308.641 33.1624C308.241 33.3577 307.906 33.6307 307.635 33.9814C307.365 34.3276 307.189 34.7227 307.109 35.1665L306.084 41.4121H304.093Z" fill="#281E11"/>
<path d="M319.531 33.6817L317.674 34.0013C317.634 33.7661 317.552 33.5441 317.427 33.3355C317.308 33.1269 317.123 32.9582 316.875 32.8295C316.626 32.6963 316.295 32.6297 315.883 32.6297C315.31 32.6297 314.808 32.7607 314.378 33.0225C313.952 33.2844 313.708 33.6174 313.645 34.0213C313.588 34.3498 313.665 34.6161 313.878 34.8203C314.092 35.0201 314.467 35.1865 315.004 35.3197L316.575 35.6926C317.481 35.9101 318.129 36.2496 318.519 36.7113C318.914 37.1685 319.052 37.7633 318.932 38.4957C318.83 39.1039 318.564 39.6432 318.133 40.1137C317.707 40.5842 317.161 40.9527 316.495 41.219C315.829 41.4854 315.088 41.6185 314.271 41.6185C313.108 41.6185 312.203 41.3722 311.555 40.8794C310.907 40.3867 310.574 39.6898 310.556 38.7887L312.527 38.4957C312.562 38.9973 312.742 39.3769 313.066 39.6343C313.395 39.8873 313.85 40.0139 314.431 40.0139C315.097 40.0183 315.654 39.8785 316.102 39.5944C316.551 39.3103 316.806 38.9663 316.868 38.5623C316.921 38.2472 316.85 37.9853 316.655 37.7766C316.464 37.568 316.127 37.4082 315.643 37.2972L313.992 36.9177C313.068 36.7002 312.416 36.3495 312.034 35.8657C311.652 35.3818 311.524 34.7737 311.648 34.0413C311.746 33.442 311.999 32.9205 312.407 32.4766C312.82 32.0282 313.341 31.6798 313.972 31.4312C314.602 31.1782 315.299 31.0517 316.062 31.0517C317.177 31.0517 318.013 31.2914 318.573 31.7708C319.132 32.2457 319.452 32.8827 319.531 33.6817Z" fill="#281E11"/>
<path d="M326.357 31.1848L326.097 32.7828H320.511L320.771 31.1848H326.357ZM322.668 28.7346H324.659L323.048 38.4092C322.986 38.7954 322.997 39.0861 323.081 39.2814C323.165 39.4723 323.294 39.6032 323.467 39.6743C323.645 39.7409 323.842 39.7741 324.06 39.7741C324.22 39.7741 324.359 39.7631 324.479 39.7409C324.599 39.7187 324.695 39.7009 324.766 39.6876L324.872 41.3322C324.739 41.3766 324.559 41.421 324.333 41.4654C324.111 41.5142 323.84 41.5408 323.521 41.5453C322.997 41.5542 322.524 41.4609 322.102 41.2656C321.681 41.0659 321.365 40.764 321.157 40.3601C320.948 39.9517 320.897 39.439 321.004 38.822L322.668 28.7346Z" fill="#281E11"/>
</svg>
